M48
; DRILL file {KiCad (6.0.9)} date Tue Jan 31 22:53:56 2023
; FORMAT={-:-/ absolute / inch / decimal}
; #@! TF.CreationDate,2023-01-31T22:53:56+08:00
; #@! TF.GenerationSoftware,Kicad,Pcbnew,(6.0.9)
; #@! TF.FileFunction,MixedPlating,1,2
FMAT,2
INCH
; #@! TA.AperFunction,Plated,PTH,ComponentDrill
T1C0.0079
; #@! TA.AperFunction,Plated,PTH,ComponentDrill
T2C0.0118
; #@! TA.AperFunction,Plated,PTH,ViaDrill
T3C0.0157
; #@! TA.AperFunction,Plated,PTH,ComponentDrill
T4C0.0197
; #@! TA.AperFunction,Plated,PTH,ComponentDrill
T5C0.0236
; #@! TA.AperFunction,Plated,PTH,ComponentDrill
T6C0.0394
; #@! TA.AperFunction,Plated,PTH,ComponentDrill
T7C0.1260
; #@! TA.AperFunction,NonPlated,NPTH,ComponentDrill
T8C0.0256
%
G90
G05
T1
X4.788Y-3.0513
X4.8158Y-3.0235
X4.8158Y-3.0792
X4.8437Y-2.9956
X4.8437Y-3.0513
X4.8437Y-3.107
X4.8715Y-3.0235
X4.8715Y-3.0792
X4.8994Y-3.0513
T2
X4.25Y-3.0377
T3
X4.29Y-3.275
X4.29Y-3.325
X4.295Y-2.455
X4.3Y-2.57
X4.3Y-2.67
X4.305Y-2.35
X4.31Y-3.39
X4.315Y-3.47
X4.325Y-2.805
X4.325Y-2.865
X4.34Y-3.235
X4.355Y-3.545
X4.38Y-2.33
X4.4Y-3.19
X4.42Y-2.9
X4.465Y-2.965
X4.48Y-2.665
X4.48Y-2.76
X4.49Y-3.19
X4.515Y-2.805
X4.555Y-3.195
X4.585Y-3.255
X4.62Y-2.9
X4.64Y-2.6
X4.645Y-3.155
X4.65Y-2.395
X4.655Y-2.495
X4.655Y-3.31
X4.655Y-3.36
X4.66Y-2.635
X4.69Y-2.905
X4.7Y-2.68
X4.715Y-3.54
X4.75Y-2.78
X4.755Y-2.72
X4.77Y-2.855
X4.785Y-3.22
X4.825Y-2.4
X4.855Y-3.265
X4.8565Y-2.72
X4.88Y-3.54
X4.905Y-3.295
X4.93Y-2.705
X4.95Y-3.38
X4.96Y-3.4594
X4.9774Y-2.6742
X4.9875Y-3.1919
X4.99Y-3.32
X4.9936Y-2.71
X4.995Y-3.05
X5.0006Y-3.1548
X5.0109Y-2.8994
X5.035Y-3.2594
X5.04Y-2.465
X5.0794Y-3.1801
X5.0871Y-2.37
X5.09Y-2.435
X5.09Y-2.53
X5.1Y-3.05
X5.1056Y-3.3306
X5.1056Y-3.37
X5.11Y-2.89
X5.11Y-3.13
X5.155Y-2.795
X5.1844Y-3.3306
X5.1844Y-3.37
X5.2Y-3.475
X5.21Y-2.46
X5.21Y-2.53
X5.21Y-2.615
X5.21Y-3.28
X5.2129Y-2.37
X5.215Y-2.795
X5.2442Y-3.1742
X5.245Y-2.585
X5.265Y-2.62
X5.285Y-2.715
X5.29Y-2.585
X5.32Y-2.795
X5.36Y-2.73
X5.36Y-3.235
X5.3643Y-3.1467
X5.37Y-2.795
X5.3738Y-2.5876
X5.385Y-3.495
X5.4Y-3.2
X5.405Y-3.555
X5.415Y-2.795
X5.435Y-2.435
X5.44Y-2.735
X5.445Y-3.17
X5.46Y-2.495
X5.46Y-2.87
X5.465Y-2.81
X5.47Y-2.955
X5.48Y-3.215
X5.485Y-2.36
X5.485Y-2.725
X5.5Y-2.435
X5.5Y-3.145
X5.505Y-2.835
X5.515Y-2.785
X5.525Y-3.19
X5.54Y-2.475
X5.545Y-2.755
X5.545Y-2.815
X5.55Y-2.395
X5.55Y-3.13
X5.56Y-3.31
X5.58Y-3.095
X5.585Y-2.94
X5.585Y-2.9794
X5.61Y-3.125
X5.73Y-2.655
X5.805Y-3.24
X5.825Y-2.635
X5.845Y-3.31
X5.86Y-2.545
X5.86Y-3.22
T4
X4.4055Y-2.5
X4.4055Y-3.4
X4.4332Y-2.4332
X4.4332Y-2.5668
X4.4332Y-3.3332
X4.4332Y-3.4668
X4.5Y-2.4055
X4.5Y-2.5945
X4.5Y-3.3055
X4.5Y-3.4945
X4.5668Y-2.4332
X4.5668Y-2.5668
X4.5668Y-3.3332
X4.5668Y-3.4668
X4.5945Y-2.5
X4.5945Y-3.4
X5.6055Y-2.5
X5.6055Y-3.4
X5.6332Y-2.4332
X5.6332Y-2.5668
X5.6332Y-3.3332
X5.6332Y-3.4668
X5.7Y-2.4055
X5.7Y-2.5945
X5.7Y-3.3055
X5.7Y-3.4945
X5.7668Y-2.4332
X5.7668Y-2.5668
X5.7668Y-3.3332
X5.7668Y-3.4668
X5.7945Y-2.5
X5.7945Y-3.4
T6
X4.75Y-2.4
X4.75Y-2.5
X4.75Y-2.6
X4.75Y-3.45
X4.85Y-3.45
X4.9Y-2.4
X4.9Y-2.5
X4.9Y-2.6
T7
X4.5Y-2.5
X4.5Y-3.4
X5.7Y-2.5
X5.7Y-3.4
T8
X5.6976Y-2.8362
X5.6976Y-3.0638
T5
G00X5.6551Y-2.7799
M15
G01X5.6984Y-2.7799
M16
G05
G00X5.6551Y-3.1201
M15
G01X5.6984Y-3.1201
M16
G05
G00X5.8295Y-2.7799
M15
G01X5.8531Y-2.7799
M16
G05
G00X5.8295Y-3.1201
M15
G01X5.8531Y-3.1201
M16
G05
T0
M30
