%TF.GenerationSoftware,KiCad,Pcbnew,(6.0.9)*%
%TF.CreationDate,2023-01-31T22:53:35+08:00*%
%TF.ProjectId,ESP32C3_RF_Test,45535033-3243-4335-9f52-465f54657374,rev?*%
%TF.SameCoordinates,Original*%
%TF.FileFunction,Copper,L2,Bot*%
%TF.FilePolarity,Positive*%
%FSLAX46Y46*%
G04 Gerber Fmt 4.6, Leading zero omitted, Abs format (unit mm)*
G04 Created by KiCad (PCBNEW (6.0.9)) date 2023-01-31 22:53:35*
%MOMM*%
%LPD*%
G01*
G04 APERTURE LIST*
G04 Aperture macros list*
%AMRotRect*
0 Rectangle, with rotation*
0 The origin of the aperture is its center*
0 $1 length*
0 $2 width*
0 $3 Rotation angle, in degrees counterclockwise*
0 Add horizontal line*
21,1,$1,$2,0,0,$3*%
G04 Aperture macros list end*
%TA.AperFunction,ComponentPad*%
%ADD10O,1.600000X1.000000*%
%TD*%
%TA.AperFunction,ComponentPad*%
%ADD11O,2.100000X1.000000*%
%TD*%
%TA.AperFunction,ComponentPad*%
%ADD12C,0.800000*%
%TD*%
%TA.AperFunction,ComponentPad*%
%ADD13C,6.400000*%
%TD*%
%TA.AperFunction,ComponentPad*%
%ADD14C,0.500000*%
%TD*%
%TA.AperFunction,SMDPad,CuDef*%
%ADD15RotRect,2.500000X2.500000X45.000000*%
%TD*%
%TA.AperFunction,ComponentPad*%
%ADD16R,1.700000X1.700000*%
%TD*%
%TA.AperFunction,ComponentPad*%
%ADD17O,1.700000X1.700000*%
%TD*%
%TA.AperFunction,ComponentPad*%
%ADD18R,0.500000X0.900000*%
%TD*%
%TA.AperFunction,ViaPad*%
%ADD19C,0.800000*%
%TD*%
%TA.AperFunction,Conductor*%
%ADD20C,0.600000*%
%TD*%
%TA.AperFunction,Conductor*%
%ADD21C,1.000000*%
%TD*%
%TA.AperFunction,Conductor*%
%ADD22C,0.250000*%
%TD*%
%TA.AperFunction,Conductor*%
%ADD23C,0.200000*%
%TD*%
G04 APERTURE END LIST*
D10*
%TO.P,J3,S1,SHIELD*%
%TO.N,Net-(C20-Pad2)*%
X148370000Y-79250000D03*
X148370000Y-70610000D03*
D11*
X144190000Y-79250000D03*
X144190000Y-70610000D03*
%TD*%
D12*
%TO.P,H2,1,1*%
%TO.N,unconnected-(H2-Pad1)*%
X142380000Y-63500000D03*
X143082944Y-65197056D03*
X144780000Y-61100000D03*
X143082944Y-61802944D03*
D13*
X144780000Y-63500000D03*
D12*
X146477056Y-61802944D03*
X144780000Y-65900000D03*
X146477056Y-65197056D03*
X147180000Y-63500000D03*
%TD*%
%TO.P,H4,1,1*%
%TO.N,unconnected-(H4-Pad1)*%
X114300000Y-83960000D03*
X115997056Y-88057056D03*
X112602944Y-84662944D03*
X116700000Y-86360000D03*
X114300000Y-88760000D03*
X111900000Y-86360000D03*
D13*
X114300000Y-86360000D03*
D12*
X112602944Y-88057056D03*
X115997056Y-84662944D03*
%TD*%
%TO.P,H3,1,1*%
%TO.N,unconnected-(H3-Pad1)*%
X142380000Y-86360000D03*
D13*
X144780000Y-86360000D03*
D12*
X144780000Y-88760000D03*
X146477056Y-88057056D03*
X146477056Y-84662944D03*
X147180000Y-86360000D03*
X143082944Y-84662944D03*
X143082944Y-88057056D03*
X144780000Y-83960000D03*
%TD*%
D14*
%TO.P,U1,33,GND*%
%TO.N,GND*%
X122322213Y-76796573D03*
X124443534Y-77503680D03*
X123029320Y-78917894D03*
X122322213Y-78210787D03*
X121615106Y-77503680D03*
X123736427Y-76796573D03*
X123736427Y-78210787D03*
X123029320Y-76089466D03*
D15*
X123029320Y-77503680D03*
D14*
X123029320Y-77503680D03*
%TD*%
D16*
%TO.P,J4,1,Pin_1*%
%TO.N,+3.3V*%
X120650000Y-87630000D03*
D17*
%TO.P,J4,2,Pin_2*%
%TO.N,GND*%
X123190000Y-87630000D03*
%TD*%
D12*
%TO.P,H1,1,1*%
%TO.N,unconnected-(H1-Pad1)*%
X116700000Y-63500000D03*
X115997056Y-61802944D03*
X115997056Y-65197056D03*
X112602944Y-61802944D03*
X114300000Y-61100000D03*
X112602944Y-65197056D03*
X114300000Y-65900000D03*
D13*
X114300000Y-63500000D03*
D12*
X111900000Y-63500000D03*
%TD*%
D16*
%TO.P,J2,1,Pin_1*%
%TO.N,/U0TX*%
X120650000Y-60960000D03*
D17*
%TO.P,J2,2,Pin_2*%
%TO.N,/U0RX*%
X120650000Y-63500000D03*
%TO.P,J2,3,Pin_3*%
%TO.N,GND*%
X120650000Y-66040000D03*
%TD*%
D18*
%TO.P,AE1,2*%
%TO.N,GND*%
X107950000Y-77157000D03*
%TD*%
D16*
%TO.P,J1,1,Pin_1*%
%TO.N,/I2C_SCL*%
X124460000Y-60960000D03*
D17*
%TO.P,J1,2,Pin_2*%
%TO.N,/I2C_SDA*%
X124460000Y-63500000D03*
%TO.P,J1,3,Pin_3*%
%TO.N,GND*%
X124460000Y-66040000D03*
%TD*%
D19*
%TO.N,GND*%
X133731000Y-66548000D03*
X140335000Y-81026000D03*
X118237000Y-63373000D03*
X109220000Y-65278000D03*
X118110000Y-60833000D03*
X118237000Y-85344000D03*
X142494000Y-79375000D03*
X121158000Y-72517000D03*
X137287000Y-90297000D03*
X129286000Y-61849000D03*
X129794000Y-79502000D03*
X145542000Y-67437000D03*
X118364000Y-66929000D03*
X140716000Y-62865000D03*
X136144000Y-82169000D03*
X148463000Y-84074000D03*
X139319000Y-69215000D03*
X139192000Y-81661000D03*
X140970000Y-60833000D03*
X132334000Y-62484000D03*
X130937000Y-70993000D03*
X109601000Y-88138000D03*
X111760000Y-81026000D03*
X132334000Y-66421000D03*
X147955000Y-66929000D03*
X139700000Y-61849000D03*
X109855000Y-71247000D03*
X133223000Y-65659000D03*
X116459000Y-82677000D03*
X110236000Y-82169000D03*
X113792000Y-70104000D03*
X140843000Y-69977000D03*
X119761000Y-89916000D03*
X113792000Y-67691000D03*
X129794000Y-73406000D03*
X109093000Y-62357000D03*
X140843000Y-71501000D03*
X136253904Y-79925463D03*
X126746000Y-84328000D03*
X124587000Y-83693000D03*
X136493663Y-65723943D03*
X117983000Y-80137000D03*
X114681000Y-71247000D03*
X148844000Y-81788000D03*
X109347000Y-59690000D03*
X132080000Y-88265000D03*
X121539000Y-81788000D03*
X135128000Y-70993000D03*
X123354500Y-69088000D03*
X123317000Y-82931000D03*
X134239000Y-68961000D03*
X114046000Y-81026000D03*
X139319000Y-59944000D03*
X120650000Y-70612000D03*
X117348000Y-73660000D03*
X136398000Y-70993000D03*
X139700000Y-79883000D03*
X138684000Y-63373000D03*
X111252000Y-59182000D03*
X134366000Y-65659000D03*
X148844000Y-64643000D03*
X128016000Y-62611000D03*
X138684000Y-72898000D03*
X141224000Y-84074000D03*
X112268000Y-73660000D03*
X138049000Y-61849000D03*
X136779000Y-88773000D03*
X129540000Y-77470000D03*
X109220000Y-67818000D03*
X123952000Y-89916000D03*
X127277049Y-73645549D03*
X140081000Y-70739000D03*
X126873000Y-77470000D03*
X108966000Y-84455000D03*
X138303000Y-80518000D03*
X122555000Y-60960000D03*
X120777000Y-69088000D03*
X141732000Y-78613000D03*
X138176000Y-69469000D03*
X110617000Y-90043000D03*
X109855000Y-72771000D03*
X138938000Y-75057000D03*
X119126000Y-73787000D03*
X119380000Y-68072000D03*
X147447000Y-82296000D03*
X136144000Y-69342000D03*
X137160000Y-81280000D03*
X139827000Y-72009000D03*
X138811000Y-71374000D03*
X132461000Y-70993000D03*
X113411000Y-75311000D03*
X137541000Y-70993000D03*
X140970000Y-79502000D03*
X133203609Y-80625609D03*
X132334000Y-83312000D03*
X109474000Y-86106000D03*
X117856000Y-66040000D03*
X115697000Y-81153000D03*
X125222000Y-68707000D03*
X118237000Y-84074000D03*
X108966000Y-83185000D03*
%TO.N,Net-(C18-Pad1)*%
X125984000Y-87867500D03*
X125730000Y-85852000D03*
%TO.N,/RST*%
X131682500Y-85598000D03*
X129683500Y-85598000D03*
%TO.N,Net-(C19-Pad1)*%
X129212000Y-60198000D03*
X132408000Y-60198000D03*
%TO.N,/BOOT*%
X127016500Y-80131063D03*
X129286000Y-64262000D03*
X129015500Y-80773937D03*
X132334000Y-64262000D03*
%TO.N,/LED_PIN*%
X131682500Y-84598497D03*
X127889000Y-82787500D03*
X126683154Y-81073338D03*
X129683500Y-84598497D03*
%TO.N,/USB_DP*%
X126424765Y-67924013D03*
X141859000Y-74676000D03*
%TO.N,/USB_DN*%
X126838200Y-68834000D03*
X141859000Y-75675503D03*
%TD*%
D20*
%TO.N,GND*%
X111565000Y-77157000D02*
X113411000Y-75311000D01*
D21*
X108331000Y-77157000D02*
X111565000Y-77157000D01*
D22*
%TO.N,Net-(C18-Pad1)*%
X125730000Y-86741000D02*
X125730000Y-85852000D01*
X125984000Y-86995000D02*
X125730000Y-86741000D01*
X125984000Y-87867500D02*
X125984000Y-86995000D01*
%TO.N,/RST*%
X131682500Y-85598000D02*
X129683500Y-85598000D01*
%TO.N,Net-(C19-Pad1)*%
X129212000Y-60198000D02*
X132408000Y-60198000D01*
%TO.N,/BOOT*%
X132334000Y-64262000D02*
X129286000Y-64262000D01*
X127635000Y-80772000D02*
X129013563Y-80772000D01*
X129013563Y-80772000D02*
X129015500Y-80773937D01*
X127016500Y-80153500D02*
X127635000Y-80772000D01*
X127016500Y-80131063D02*
X127016500Y-80153500D01*
%TO.N,/LED_PIN*%
X126683154Y-81581654D02*
X126683154Y-81073338D01*
X129683500Y-84598497D02*
X131682500Y-84598497D01*
X127889000Y-82787500D02*
X126683154Y-81581654D01*
D23*
%TO.N,/USB_DP*%
X141351000Y-74168000D02*
X141859000Y-74676000D01*
X130440190Y-67536300D02*
X130539490Y-67437000D01*
X141351000Y-73152000D02*
X141351000Y-74168000D01*
X142494000Y-69977000D02*
X142494000Y-72009000D01*
X130539490Y-67437000D02*
X139954000Y-67437000D01*
X139954000Y-67437000D02*
X142494000Y-69977000D01*
X142494000Y-72009000D02*
X141351000Y-73152000D01*
X126812478Y-67536300D02*
X130440190Y-67536300D01*
X126424765Y-67924013D02*
X126812478Y-67536300D01*
%TO.N,/USB_DN*%
X127735900Y-67936300D02*
X130605875Y-67936300D01*
X141159000Y-74541686D02*
X141159000Y-74975503D01*
X140951000Y-74333686D02*
X141159000Y-74541686D01*
X142094000Y-70142686D02*
X142094000Y-71843314D01*
X126838200Y-68834000D02*
X127735900Y-67936300D01*
X140951000Y-72986315D02*
X140951000Y-74333686D01*
X130605875Y-67936300D02*
X130705175Y-67837000D01*
X139788314Y-67837000D02*
X142094000Y-70142686D01*
X141159000Y-74975503D02*
X141859000Y-75675503D01*
X130705175Y-67837000D02*
X139788314Y-67837000D01*
X142094000Y-71843314D02*
X140951000Y-72986315D01*
D22*
%TO.N,Net-(C20-Pad2)*%
X148370000Y-79250000D02*
X144190000Y-79250000D01*
X148370000Y-70610000D02*
X148370000Y-79250000D01*
X144190000Y-70610000D02*
X148370000Y-70610000D01*
%TD*%
%TA.AperFunction,Conductor*%
%TO.N,GND*%
G36*
X144767103Y-58676921D02*
G01*
X144780000Y-58679486D01*
X144792170Y-58677065D01*
X144802599Y-58677065D01*
X144815735Y-58676060D01*
X145138600Y-58690156D01*
X145195075Y-58692622D01*
X145206023Y-58693580D01*
X145612496Y-58747093D01*
X145623301Y-58748999D01*
X146023566Y-58837736D01*
X146034176Y-58840579D01*
X146425175Y-58963860D01*
X146435488Y-58967613D01*
X146814277Y-59124513D01*
X146824221Y-59129151D01*
X147126931Y-59286731D01*
X147187867Y-59318452D01*
X147197387Y-59323948D01*
X147543148Y-59544223D01*
X147552152Y-59550527D01*
X147593799Y-59582484D01*
X147841903Y-59772860D01*
X147877413Y-59800108D01*
X147885830Y-59807172D01*
X148140719Y-60040733D01*
X148188088Y-60084139D01*
X148195857Y-60091908D01*
X148472826Y-60394167D01*
X148479889Y-60402584D01*
X148511623Y-60443940D01*
X148729473Y-60727848D01*
X148735777Y-60736852D01*
X148956052Y-61082613D01*
X148961547Y-61092132D01*
X149127624Y-61411162D01*
X149150845Y-61455770D01*
X149155487Y-61465723D01*
X149310989Y-61841137D01*
X149312384Y-61844504D01*
X149316140Y-61854825D01*
X149377595Y-62049734D01*
X149439421Y-62245823D01*
X149442264Y-62256434D01*
X149531001Y-62656699D01*
X149532907Y-62667504D01*
X149543151Y-62745317D01*
X149586420Y-63073976D01*
X149587378Y-63084926D01*
X149603940Y-63464265D01*
X149602935Y-63477401D01*
X149602935Y-63487830D01*
X149600514Y-63500000D01*
X149602935Y-63512170D01*
X149603079Y-63512894D01*
X149605500Y-63537476D01*
X149605500Y-69131536D01*
X149585498Y-69199657D01*
X149531842Y-69246150D01*
X149461568Y-69256254D01*
X149438345Y-69250327D01*
X149438290Y-69250302D01*
X149432657Y-69248648D01*
X149374492Y-69231569D01*
X149374488Y-69231568D01*
X149370169Y-69230300D01*
X149365720Y-69229660D01*
X149365714Y-69229659D01*
X149229947Y-69210139D01*
X149229942Y-69210139D01*
X149225500Y-69209500D01*
X143217987Y-69209500D01*
X143213627Y-69210114D01*
X143213622Y-69210114D01*
X143130896Y-69221758D01*
X143076250Y-69229449D01*
X143072015Y-69230665D01*
X143072016Y-69230665D01*
X143013633Y-69247431D01*
X143013630Y-69247432D01*
X143009396Y-69248648D01*
X142961697Y-69269919D01*
X142886820Y-69303309D01*
X142886818Y-69303310D01*
X142878676Y-69306941D01*
X142767086Y-69401332D01*
X142764094Y-69404703D01*
X142764091Y-69404706D01*
X142724836Y-69448934D01*
X142719958Y-69454430D01*
X142717484Y-69458181D01*
X142717480Y-69458186D01*
X142706761Y-69474436D01*
X142652554Y-69520285D01*
X142582165Y-69529550D01*
X142517940Y-69499288D01*
X142512488Y-69494150D01*
X140240918Y-67222580D01*
X140228413Y-67207098D01*
X140225477Y-67203871D01*
X140219825Y-67195118D01*
X140195562Y-67175991D01*
X140191567Y-67172441D01*
X140191483Y-67172540D01*
X140187520Y-67169182D01*
X140183844Y-67165506D01*
X140179614Y-67162483D01*
X140169348Y-67155146D01*
X140164605Y-67151585D01*
X140135325Y-67128503D01*
X140135321Y-67128501D01*
X140127143Y-67122054D01*
X140119075Y-67119221D01*
X140112115Y-67114247D01*
X140066414Y-67100580D01*
X140060765Y-67098744D01*
X140025228Y-67086264D01*
X140015792Y-67082950D01*
X140010596Y-67082500D01*
X140007891Y-67082500D01*
X140005635Y-67082403D01*
X140005159Y-67082260D01*
X140005161Y-67082214D01*
X140004962Y-67082201D01*
X139999045Y-67080432D01*
X139949411Y-67082382D01*
X139948876Y-67082403D01*
X139943930Y-67082500D01*
X130590747Y-67082500D01*
X130570953Y-67080394D01*
X130566600Y-67080189D01*
X130556420Y-67077997D01*
X130525750Y-67081627D01*
X130520407Y-67081942D01*
X130520418Y-67082072D01*
X130515238Y-67082500D01*
X130510039Y-67082500D01*
X130504915Y-67083353D01*
X130504902Y-67083354D01*
X130492449Y-67085427D01*
X130486574Y-67086264D01*
X130449561Y-67090645D01*
X130439220Y-67091869D01*
X130431512Y-67095570D01*
X130423073Y-67096975D01*
X130413903Y-67101923D01*
X130381109Y-67119618D01*
X130375818Y-67122314D01*
X130339979Y-67139523D01*
X130339972Y-67139527D01*
X130332832Y-67142956D01*
X130328840Y-67146312D01*
X130326910Y-67148242D01*
X130326463Y-67148652D01*
X130323869Y-67149927D01*
X130320102Y-67152359D01*
X130319817Y-67151917D01*
X130262743Y-67179960D01*
X130241290Y-67181800D01*
X126863735Y-67181800D01*
X126843941Y-67179694D01*
X126839588Y-67179489D01*
X126829408Y-67177297D01*
X126798738Y-67180927D01*
X126793395Y-67181242D01*
X126793406Y-67181372D01*
X126788226Y-67181800D01*
X126783027Y-67181800D01*
X126777903Y-67182653D01*
X126777890Y-67182654D01*
X126765437Y-67184727D01*
X126759562Y-67185564D01*
X126722549Y-67189945D01*
X126712208Y-67191169D01*
X126704500Y-67194870D01*
X126696061Y-67196275D01*
X126654077Y-67218929D01*
X126648814Y-67221610D01*
X126605820Y-67242255D01*
X126601828Y-67245611D01*
X126600686Y-67246753D01*
X126593090Y-67251658D01*
X126591219Y-67248760D01*
X126540516Y-67270968D01*
X126511724Y-67270992D01*
X126507398Y-67269905D01*
X126499803Y-67269865D01*
X126499801Y-67269865D01*
X126430958Y-67269504D01*
X126348986Y-67269075D01*
X126341606Y-67270847D01*
X126341604Y-67270847D01*
X126202328Y-67304284D01*
X126202325Y-67304285D01*
X126194949Y-67306056D01*
X126054179Y-67378713D01*
X125934804Y-67482851D01*
X125843715Y-67612457D01*
X125786171Y-67760050D01*
X125785179Y-67767583D01*
X125785179Y-67767584D01*
X125768958Y-67890800D01*
X125765494Y-67917109D01*
X125782878Y-68074566D01*
X125785488Y-68081697D01*
X125785488Y-68081699D01*
X125826343Y-68193340D01*
X125837318Y-68223332D01*
X125841554Y-68229635D01*
X125841554Y-68229636D01*
X125885681Y-68295303D01*
X125925673Y-68354818D01*
X126042841Y-68461432D01*
X126141904Y-68515219D01*
X126192225Y-68565302D01*
X126207481Y-68634640D01*
X126203822Y-68657285D01*
X126202364Y-68662962D01*
X126199606Y-68670037D01*
X126178929Y-68827096D01*
X126196313Y-68984553D01*
X126250753Y-69133319D01*
X126254989Y-69139622D01*
X126254989Y-69139623D01*
X126315922Y-69230300D01*
X126339108Y-69264805D01*
X126344727Y-69269918D01*
X126344728Y-69269919D01*
X126450660Y-69366309D01*
X126456276Y-69371419D01*
X126595493Y-69447008D01*
X126748722Y-69487207D01*
X126832677Y-69488526D01*
X126899519Y-69489576D01*
X126899522Y-69489576D01*
X126907116Y-69489695D01*
X127061532Y-69454329D01*
X127131942Y-69418917D01*
X127196272Y-69386563D01*
X127196275Y-69386561D01*
X127203055Y-69383151D01*
X127208826Y-69378222D01*
X127208829Y-69378220D01*
X127317736Y-69285204D01*
X127317736Y-69285203D01*
X127323514Y-69280269D01*
X127415955Y-69151624D01*
X127475042Y-69004641D01*
X127497362Y-68847807D01*
X127497507Y-68834000D01*
X127497012Y-68829906D01*
X127497011Y-68829895D01*
X127487822Y-68753957D01*
X127499495Y-68683927D01*
X127523814Y-68649725D01*
X127845834Y-68327705D01*
X127908146Y-68293679D01*
X127934929Y-68290800D01*
X130554618Y-68290800D01*
X130574412Y-68292906D01*
X130578765Y-68293111D01*
X130588945Y-68295303D01*
X130619615Y-68291673D01*
X130624958Y-68291358D01*
X130624947Y-68291228D01*
X130630127Y-68290800D01*
X130635326Y-68290800D01*
X130640450Y-68289947D01*
X130640463Y-68289946D01*
X130652916Y-68287873D01*
X130658791Y-68287036D01*
X130695804Y-68282655D01*
X130706145Y-68281431D01*
X130713853Y-68277730D01*
X130722292Y-68276325D01*
X130764276Y-68253671D01*
X130769539Y-68250990D01*
X130777745Y-68247050D01*
X130812533Y-68230345D01*
X130816525Y-68226989D01*
X130818469Y-68225045D01*
X130818902Y-68224648D01*
X130821503Y-68223370D01*
X130825263Y-68220942D01*
X130825548Y-68221383D01*
X130882623Y-68193340D01*
X130904076Y-68191500D01*
X139589285Y-68191500D01*
X139657406Y-68211502D01*
X139678380Y-68228405D01*
X141702595Y-70252620D01*
X141736621Y-70314932D01*
X141739500Y-70341715D01*
X141739500Y-71644284D01*
X141719498Y-71712405D01*
X141702596Y-71733379D01*
X140736578Y-72699399D01*
X140721098Y-72711901D01*
X140717868Y-72714840D01*
X140709118Y-72720490D01*
X140689991Y-72744753D01*
X140686441Y-72748748D01*
X140686540Y-72748832D01*
X140683182Y-72752795D01*
X140679506Y-72756471D01*
X140676483Y-72760700D01*
X140676483Y-72760701D01*
X140669146Y-72770967D01*
X140665585Y-72775710D01*
X140642503Y-72804990D01*
X140642501Y-72804994D01*
X140636054Y-72813172D01*
X140633221Y-72821240D01*
X140628247Y-72828200D01*
X140625263Y-72838178D01*
X140614580Y-72873901D01*
X140612744Y-72879550D01*
X140596950Y-72924523D01*
X140596500Y-72929719D01*
X140596500Y-72932424D01*
X140596403Y-72934680D01*
X140596260Y-72935156D01*
X140596214Y-72935154D01*
X140596201Y-72935353D01*
X140594432Y-72941270D01*
X140594841Y-72951674D01*
X140596403Y-72991439D01*
X140596500Y-72996385D01*
X140596500Y-74282429D01*
X140594394Y-74302223D01*
X140594189Y-74306576D01*
X140591997Y-74316756D01*
X140593221Y-74327094D01*
X140595627Y-74347423D01*
X140595942Y-74352769D01*
X140596072Y-74352758D01*
X140596500Y-74357938D01*
X140596500Y-74363137D01*
X140597353Y-74368261D01*
X140597354Y-74368274D01*
X140599427Y-74380727D01*
X140600264Y-74386602D01*
X140605869Y-74433956D01*
X140609570Y-74441664D01*
X140610975Y-74450103D01*
X140633629Y-74492087D01*
X140636310Y-74497350D01*
X140656955Y-74540344D01*
X140660311Y-74544336D01*
X140662258Y-74546283D01*
X140663748Y-74547908D01*
X140663981Y-74548340D01*
X140663945Y-74548373D01*
X140664084Y-74548531D01*
X140667017Y-74553966D01*
X140674664Y-74561035D01*
X140703881Y-74588043D01*
X140707447Y-74591472D01*
X140767595Y-74651620D01*
X140801621Y-74713932D01*
X140804500Y-74740715D01*
X140804500Y-74924246D01*
X140802394Y-74944040D01*
X140802189Y-74948393D01*
X140799997Y-74958573D01*
X140801221Y-74968911D01*
X140803627Y-74989240D01*
X140803942Y-74994586D01*
X140804072Y-74994575D01*
X140804500Y-74999755D01*
X140804500Y-75004954D01*
X140805353Y-75010078D01*
X140805354Y-75010091D01*
X140807427Y-75022544D01*
X140808264Y-75028419D01*
X140813869Y-75075773D01*
X140817570Y-75083481D01*
X140818975Y-75091920D01*
X140841629Y-75133904D01*
X140844310Y-75139167D01*
X140864955Y-75182161D01*
X140868311Y-75186153D01*
X140870258Y-75188100D01*
X140871748Y-75189725D01*
X140871981Y-75190157D01*
X140871945Y-75190190D01*
X140872084Y-75190348D01*
X140875017Y-75195783D01*
X140882664Y-75202852D01*
X140911881Y-75229860D01*
X140915447Y-75233289D01*
X141173362Y-75491204D01*
X141207388Y-75553516D01*
X141209189Y-75596744D01*
X141199729Y-75668599D01*
X141217113Y-75826056D01*
X141271553Y-75974822D01*
X141359908Y-76106308D01*
X141477076Y-76212922D01*
X141616293Y-76288511D01*
X141769522Y-76328710D01*
X141853477Y-76330029D01*
X141920319Y-76331079D01*
X141920322Y-76331079D01*
X141927916Y-76331198D01*
X142082332Y-76295832D01*
X142178886Y-76247271D01*
X142248731Y-76234533D01*
X142314375Y-76261577D01*
X142354976Y-76319818D01*
X142361500Y-76359836D01*
X142361500Y-78468329D01*
X142382975Y-78615278D01*
X142384283Y-78619659D01*
X142384285Y-78619666D01*
X142398489Y-78667224D01*
X142403612Y-78684376D01*
X142405538Y-78688517D01*
X142462407Y-78810791D01*
X142462409Y-78810794D01*
X142466239Y-78819029D01*
X142562969Y-78928597D01*
X142607721Y-78966656D01*
X142608836Y-78965345D01*
X142611460Y-78966928D01*
X142644361Y-78992800D01*
X142649883Y-78997990D01*
X142648923Y-78999312D01*
X142659349Y-79006887D01*
X142749049Y-79072058D01*
X142768624Y-79089683D01*
X142806460Y-79131704D01*
X142821943Y-79153015D01*
X142850216Y-79201985D01*
X142860929Y-79226046D01*
X142878014Y-79278626D01*
X142882359Y-79296219D01*
X142883042Y-79300194D01*
X142884172Y-79308360D01*
X142889792Y-79361828D01*
X142889792Y-79388171D01*
X142883880Y-79444413D01*
X142878404Y-79470172D01*
X142860933Y-79523945D01*
X142850218Y-79548010D01*
X142842351Y-79561635D01*
X142842339Y-79561657D01*
X142840842Y-79564251D01*
X142839597Y-79566977D01*
X142839594Y-79566983D01*
X142829232Y-79589674D01*
X142800292Y-79653043D01*
X142784693Y-79698111D01*
X142761675Y-79792990D01*
X142761675Y-79939148D01*
X142771779Y-80009422D01*
X142812956Y-80149657D01*
X142817826Y-80157236D01*
X142817828Y-80157239D01*
X142856765Y-80217825D01*
X142891974Y-80272612D01*
X142938467Y-80326268D01*
X142946095Y-80332878D01*
X143042116Y-80416081D01*
X143042119Y-80416083D01*
X143048927Y-80421982D01*
X143057125Y-80425726D01*
X143067320Y-80430382D01*
X143181876Y-80482698D01*
X143205630Y-80489673D01*
X143245674Y-80501431D01*
X143245678Y-80501432D01*
X143249997Y-80502700D01*
X143254446Y-80503340D01*
X143254452Y-80503341D01*
X143390219Y-80522861D01*
X143390224Y-80522861D01*
X143394666Y-80523500D01*
X149225500Y-80523500D01*
X149228846Y-80523140D01*
X149228851Y-80523140D01*
X149331285Y-80512128D01*
X149331292Y-80512127D01*
X149334649Y-80511766D01*
X149337950Y-80511048D01*
X149383710Y-80501094D01*
X149383715Y-80501093D01*
X149386991Y-80500380D01*
X149390174Y-80499320D01*
X149390187Y-80499317D01*
X149439710Y-80482834D01*
X149510661Y-80480300D01*
X149571719Y-80516528D01*
X149603498Y-80580015D01*
X149605500Y-80602386D01*
X149605500Y-86322524D01*
X149603079Y-86347103D01*
X149600514Y-86360000D01*
X149602935Y-86372170D01*
X149602935Y-86382599D01*
X149603940Y-86395735D01*
X149587378Y-86775074D01*
X149586420Y-86786023D01*
X149538213Y-87152194D01*
X149532908Y-87192488D01*
X149531001Y-87203301D01*
X149442266Y-87603560D01*
X149439421Y-87614176D01*
X149355196Y-87881307D01*
X149316143Y-88005167D01*
X149312387Y-88015488D01*
X149186791Y-88318704D01*
X149155491Y-88394268D01*
X149150849Y-88404221D01*
X148968495Y-88754521D01*
X148961548Y-88767867D01*
X148956052Y-88777387D01*
X148735777Y-89123148D01*
X148729473Y-89132152D01*
X148666254Y-89214541D01*
X148502995Y-89427305D01*
X148479892Y-89457413D01*
X148472828Y-89465830D01*
X148313856Y-89639319D01*
X148195861Y-89768088D01*
X148188092Y-89775857D01*
X147885833Y-90052826D01*
X147877413Y-90059892D01*
X147552152Y-90309473D01*
X147543148Y-90315777D01*
X147197387Y-90536052D01*
X147187868Y-90541547D01*
X146824221Y-90730849D01*
X146814277Y-90735487D01*
X146435488Y-90892387D01*
X146425175Y-90896140D01*
X146034177Y-91019421D01*
X146023566Y-91022264D01*
X145623301Y-91111001D01*
X145612496Y-91112907D01*
X145213027Y-91165498D01*
X145206024Y-91166420D01*
X145195075Y-91167378D01*
X145138600Y-91169844D01*
X144815735Y-91183940D01*
X144802599Y-91182935D01*
X144792170Y-91182935D01*
X144780000Y-91180514D01*
X144767103Y-91183079D01*
X144742524Y-91185500D01*
X108584000Y-91185500D01*
X108515879Y-91165498D01*
X108469386Y-91111842D01*
X108458000Y-91059500D01*
X108458000Y-86347924D01*
X110840447Y-86347924D01*
X110840619Y-86351319D01*
X110840619Y-86351320D01*
X110850068Y-86537844D01*
X110859378Y-86721624D01*
X110859915Y-86724979D01*
X110859916Y-86724985D01*
X110883912Y-86874797D01*
X110918557Y-87091094D01*
X111017293Y-87452011D01*
X111154430Y-87800154D01*
X111328365Y-88131450D01*
X111330262Y-88134274D01*
X111330265Y-88134278D01*
X111440486Y-88298305D01*
X111537061Y-88442024D01*
X111539256Y-88444630D01*
X111539260Y-88444636D01*
X111642407Y-88567126D01*
X111778079Y-88728241D01*
X112048598Y-88986755D01*
X112345455Y-89214541D01*
X112665176Y-89408935D01*
X113004021Y-89567661D01*
X113007239Y-89568763D01*
X113007242Y-89568764D01*
X113354803Y-89687761D01*
X113354811Y-89687763D01*
X113358026Y-89688864D01*
X113723051Y-89771126D01*
X113810200Y-89781056D01*
X114091442Y-89813100D01*
X114091450Y-89813100D01*
X114094825Y-89813485D01*
X114098229Y-89813503D01*
X114098232Y-89813503D01*
X114301556Y-89814567D01*
X114468999Y-89815444D01*
X114472385Y-89815094D01*
X114472387Y-89815094D01*
X114837805Y-89777332D01*
X114837814Y-89777331D01*
X114841197Y-89776981D01*
X114844530Y-89776267D01*
X114844533Y-89776266D01*
X115024820Y-89737616D01*
X115207063Y-89698546D01*
X115562318Y-89581056D01*
X115902807Y-89425887D01*
X116000707Y-89367758D01*
X116221601Y-89236601D01*
X116221606Y-89236598D01*
X116224546Y-89234852D01*
X116254354Y-89212472D01*
X116373321Y-89123148D01*
X116523771Y-89010187D01*
X116796983Y-88754521D01*
X117040985Y-88470842D01*
X117081618Y-88411720D01*
X117250992Y-88165280D01*
X117250997Y-88165273D01*
X117252922Y-88162471D01*
X117254534Y-88159477D01*
X117254539Y-88159469D01*
X117428694Y-87836027D01*
X117430316Y-87833015D01*
X117571091Y-87486327D01*
X117673601Y-87126463D01*
X117692338Y-87016846D01*
X117736075Y-86760981D01*
X117736075Y-86760979D01*
X117736647Y-86757634D01*
X117736813Y-86754933D01*
X119545500Y-86754933D01*
X119545501Y-88505066D01*
X119560266Y-88579301D01*
X119616516Y-88663484D01*
X119700699Y-88719734D01*
X119774933Y-88734500D01*
X120649858Y-88734500D01*
X121525066Y-88734499D01*
X121560818Y-88727388D01*
X121587126Y-88722156D01*
X121587128Y-88722155D01*
X121599301Y-88719734D01*
X121609621Y-88712839D01*
X121609622Y-88712838D01*
X121673168Y-88670377D01*
X121683484Y-88663484D01*
X121739734Y-88579301D01*
X121754500Y-88505067D01*
X121754499Y-86754934D01*
X121739734Y-86680699D01*
X121683484Y-86596516D01*
X121599301Y-86540266D01*
X121525067Y-86525500D01*
X120650142Y-86525500D01*
X119774934Y-86525501D01*
X119739182Y-86532612D01*
X119712874Y-86537844D01*
X119712872Y-86537845D01*
X119700699Y-86540266D01*
X119690379Y-86547161D01*
X119690378Y-86547162D01*
X119673561Y-86558399D01*
X119616516Y-86596516D01*
X119560266Y-86680699D01*
X119545500Y-86754933D01*
X117736813Y-86754933D01*
X117736985Y-86752119D01*
X117757617Y-86414775D01*
X117759490Y-86384152D01*
X117759574Y-86360000D01*
X117739339Y-85986368D01*
X117716205Y-85845096D01*
X125070729Y-85845096D01*
X125075707Y-85890185D01*
X125086702Y-85989770D01*
X125088113Y-86002553D01*
X125090723Y-86009684D01*
X125090723Y-86009686D01*
X125134865Y-86130309D01*
X125142553Y-86151319D01*
X125146789Y-86157622D01*
X125146789Y-86157623D01*
X125183957Y-86212934D01*
X125230908Y-86282805D01*
X125236527Y-86287918D01*
X125236528Y-86287919D01*
X125309299Y-86354135D01*
X125346222Y-86414775D01*
X125350500Y-86447329D01*
X125350500Y-86687080D01*
X125347951Y-86711028D01*
X125347872Y-86712693D01*
X125345680Y-86722876D01*
X125346904Y-86733217D01*
X125349627Y-86756223D01*
X125349977Y-86762154D01*
X125350072Y-86762146D01*
X125350500Y-86767324D01*
X125350500Y-86772524D01*
X125351354Y-86777653D01*
X125351354Y-86777656D01*
X125353669Y-86791565D01*
X125354506Y-86797443D01*
X125357488Y-86822634D01*
X125360530Y-86848341D01*
X125364493Y-86856593D01*
X125365996Y-86865626D01*
X125370943Y-86874795D01*
X125370944Y-86874797D01*
X125390334Y-86910732D01*
X125393031Y-86916025D01*
X125411785Y-86955082D01*
X125411788Y-86955086D01*
X125415219Y-86962232D01*
X125418814Y-86966508D01*
X125420737Y-86968431D01*
X125422509Y-86970363D01*
X125422552Y-86970442D01*
X125422428Y-86970555D01*
X125422904Y-86971095D01*
X125425990Y-86976814D01*
X125433635Y-86983881D01*
X125465586Y-87013416D01*
X125469152Y-87016846D01*
X125567595Y-87115289D01*
X125601621Y-87177601D01*
X125604500Y-87204384D01*
X125604500Y-87272687D01*
X125584498Y-87340808D01*
X125561330Y-87367635D01*
X125494039Y-87426338D01*
X125402950Y-87555944D01*
X125345406Y-87703537D01*
X125344414Y-87711070D01*
X125344414Y-87711071D01*
X125327964Y-87836027D01*
X125324729Y-87860596D01*
X125342113Y-88018053D01*
X125344723Y-88025184D01*
X125344723Y-88025186D01*
X125384645Y-88134278D01*
X125396553Y-88166819D01*
X125484908Y-88298305D01*
X125490527Y-88303418D01*
X125490528Y-88303419D01*
X125595949Y-88399344D01*
X125602076Y-88404919D01*
X125741293Y-88480508D01*
X125894522Y-88520707D01*
X125978477Y-88522026D01*
X126045319Y-88523076D01*
X126045322Y-88523076D01*
X126052916Y-88523195D01*
X126207332Y-88487829D01*
X126304037Y-88439192D01*
X126342072Y-88420063D01*
X126342075Y-88420061D01*
X126348855Y-88416651D01*
X126354626Y-88411722D01*
X126354629Y-88411720D01*
X126463536Y-88318704D01*
X126463536Y-88318703D01*
X126469314Y-88313769D01*
X126561755Y-88185124D01*
X126620842Y-88038141D01*
X126643162Y-87881307D01*
X126643307Y-87867500D01*
X126624276Y-87710233D01*
X126568280Y-87562046D01*
X126494834Y-87455181D01*
X126482855Y-87437751D01*
X126482854Y-87437749D01*
X126478553Y-87431492D01*
X126405681Y-87366565D01*
X126368126Y-87306316D01*
X126363500Y-87272489D01*
X126363500Y-87048920D01*
X126366049Y-87024973D01*
X126366128Y-87023307D01*
X126368320Y-87013124D01*
X126367096Y-87002782D01*
X126367096Y-87002779D01*
X126364374Y-86979787D01*
X126364023Y-86973846D01*
X126363928Y-86973854D01*
X126363500Y-86968674D01*
X126363500Y-86963476D01*
X126360329Y-86944424D01*
X126359492Y-86938547D01*
X126354693Y-86897997D01*
X126354692Y-86897995D01*
X126353469Y-86887659D01*
X126349508Y-86879410D01*
X126348004Y-86870374D01*
X126342073Y-86859381D01*
X126323652Y-86825240D01*
X126320957Y-86819951D01*
X126302212Y-86780915D01*
X126298780Y-86773768D01*
X126295186Y-86769492D01*
X126293246Y-86767552D01*
X126291493Y-86765641D01*
X126291444Y-86765551D01*
X126291567Y-86765439D01*
X126291095Y-86764904D01*
X126288010Y-86759186D01*
X126248413Y-86722583D01*
X126244848Y-86719154D01*
X126146405Y-86620711D01*
X126112379Y-86558399D01*
X126109500Y-86531616D01*
X126109500Y-86446730D01*
X126129502Y-86378609D01*
X126153669Y-86350919D01*
X126157176Y-86347924D01*
X141320447Y-86347924D01*
X141320619Y-86351319D01*
X141320619Y-86351320D01*
X141330068Y-86537844D01*
X141339378Y-86721624D01*
X141339915Y-86724979D01*
X141339916Y-86724985D01*
X141363912Y-86874797D01*
X141398557Y-87091094D01*
X141497293Y-87452011D01*
X141634430Y-87800154D01*
X141808365Y-88131450D01*
X141810262Y-88134274D01*
X141810265Y-88134278D01*
X141920486Y-88298305D01*
X142017061Y-88442024D01*
X142019256Y-88444630D01*
X142019260Y-88444636D01*
X142122407Y-88567126D01*
X142258079Y-88728241D01*
X142528598Y-88986755D01*
X142825455Y-89214541D01*
X143145176Y-89408935D01*
X143484021Y-89567661D01*
X143487239Y-89568763D01*
X143487242Y-89568764D01*
X143834803Y-89687761D01*
X143834811Y-89687763D01*
X143838026Y-89688864D01*
X144203051Y-89771126D01*
X144290200Y-89781056D01*
X144571442Y-89813100D01*
X144571450Y-89813100D01*
X144574825Y-89813485D01*
X144578229Y-89813503D01*
X144578232Y-89813503D01*
X144781556Y-89814567D01*
X144948999Y-89815444D01*
X144952385Y-89815094D01*
X144952387Y-89815094D01*
X145317805Y-89777332D01*
X145317814Y-89777331D01*
X145321197Y-89776981D01*
X145324530Y-89776267D01*
X145324533Y-89776266D01*
X145504820Y-89737616D01*
X145687063Y-89698546D01*
X146042318Y-89581056D01*
X146382807Y-89425887D01*
X146480707Y-89367758D01*
X146701601Y-89236601D01*
X146701606Y-89236598D01*
X146704546Y-89234852D01*
X146734354Y-89212472D01*
X146853321Y-89123148D01*
X147003771Y-89010187D01*
X147276983Y-88754521D01*
X147520985Y-88470842D01*
X147561618Y-88411720D01*
X147730992Y-88165280D01*
X147730997Y-88165273D01*
X147732922Y-88162471D01*
X147734534Y-88159477D01*
X147734539Y-88159469D01*
X147908694Y-87836027D01*
X147910316Y-87833015D01*
X148051091Y-87486327D01*
X148153601Y-87126463D01*
X148172338Y-87016846D01*
X148216075Y-86760981D01*
X148216075Y-86760979D01*
X148216647Y-86757634D01*
X148216985Y-86752119D01*
X148237617Y-86414775D01*
X148239490Y-86384152D01*
X148239574Y-86360000D01*
X148219339Y-85986368D01*
X148158870Y-85617107D01*
X148058875Y-85256537D01*
X148055627Y-85248373D01*
X147921783Y-84912039D01*
X147921779Y-84912031D01*
X147920523Y-84908874D01*
X147745434Y-84578188D01*
X147743534Y-84575382D01*
X147743530Y-84575375D01*
X147537561Y-84271162D01*
X147535654Y-84268345D01*
X147293639Y-83982970D01*
X147022219Y-83725402D01*
X147019512Y-83723340D01*
X147019504Y-83723333D01*
X146727281Y-83500720D01*
X146724569Y-83498654D01*
X146525847Y-83378776D01*
X146407100Y-83307143D01*
X146407096Y-83307141D01*
X146404172Y-83305377D01*
X146401082Y-83303943D01*
X146401077Y-83303940D01*
X146067871Y-83149272D01*
X146067869Y-83149271D01*
X146064775Y-83147835D01*
X146061540Y-83146740D01*
X146061535Y-83146738D01*
X145713583Y-83028963D01*
X145710348Y-83027868D01*
X145345038Y-82946881D01*
X145196691Y-82930503D01*
X144976500Y-82906193D01*
X144976495Y-82906193D01*
X144973119Y-82905820D01*
X144969720Y-82905814D01*
X144969719Y-82905814D01*
X144792987Y-82905506D01*
X144598940Y-82905167D01*
X144460079Y-82920007D01*
X144230263Y-82944567D01*
X144230257Y-82944568D01*
X144226879Y-82944929D01*
X143861289Y-83024641D01*
X143506446Y-83143369D01*
X143166501Y-83299727D01*
X143163567Y-83301483D01*
X143163565Y-83301484D01*
X143113044Y-83331720D01*
X142845431Y-83491883D01*
X142546991Y-83717591D01*
X142544509Y-83719930D01*
X142544503Y-83719935D01*
X142538702Y-83725402D01*
X142274674Y-83974210D01*
X142272462Y-83976800D01*
X142272461Y-83976801D01*
X142065606Y-84218997D01*
X142031664Y-84258738D01*
X142029736Y-84261565D01*
X142029734Y-84261567D01*
X141906605Y-84442068D01*
X141820804Y-84567847D01*
X141819197Y-84570857D01*
X141819195Y-84570860D01*
X141709558Y-84776192D01*
X141644561Y-84897921D01*
X141643288Y-84901089D01*
X141643287Y-84901090D01*
X141507031Y-85240039D01*
X141504997Y-85245098D01*
X141449771Y-85441571D01*
X141405801Y-85598000D01*
X141403744Y-85605317D01*
X141403182Y-85608674D01*
X141403182Y-85608675D01*
X141360153Y-85865807D01*
X141341986Y-85974365D01*
X141320447Y-86347924D01*
X126157176Y-86347924D01*
X126209536Y-86303204D01*
X126215314Y-86298269D01*
X126307755Y-86169624D01*
X126366842Y-86022641D01*
X126389162Y-85865807D01*
X126389307Y-85852000D01*
X126370276Y-85694733D01*
X126331114Y-85591096D01*
X129024229Y-85591096D01*
X129027101Y-85617107D01*
X129035764Y-85695571D01*
X129041613Y-85748553D01*
X129044223Y-85755684D01*
X129044223Y-85755686D01*
X129080982Y-85856134D01*
X129096053Y-85897319D01*
X129100289Y-85903622D01*
X129100289Y-85903623D01*
X129175209Y-86015115D01*
X129184408Y-86028805D01*
X129190025Y-86033916D01*
X129190028Y-86033919D01*
X129201403Y-86044269D01*
X129301576Y-86135419D01*
X129440793Y-86211008D01*
X129594022Y-86251207D01*
X129677977Y-86252526D01*
X129744819Y-86253576D01*
X129744822Y-86253576D01*
X129752416Y-86253695D01*
X129906832Y-86218329D01*
X130003672Y-86169624D01*
X130041572Y-86150563D01*
X130041575Y-86150561D01*
X130048355Y-86147151D01*
X130054126Y-86142222D01*
X130054129Y-86142220D01*
X130163042Y-86049199D01*
X130163043Y-86049198D01*
X130168814Y-86044269D01*
X130179086Y-86029974D01*
X130235081Y-85986326D01*
X130281409Y-85977500D01*
X131082641Y-85977500D01*
X131150762Y-85997502D01*
X131178022Y-86021169D01*
X131179171Y-86022500D01*
X131183408Y-86028805D01*
X131300576Y-86135419D01*
X131439793Y-86211008D01*
X131593022Y-86251207D01*
X131676977Y-86252526D01*
X131743819Y-86253576D01*
X131743822Y-86253576D01*
X131751416Y-86253695D01*
X131905832Y-86218329D01*
X132002672Y-86169624D01*
X132040572Y-86150563D01*
X132040575Y-86150561D01*
X132047355Y-86147151D01*
X132053126Y-86142222D01*
X132053129Y-86142220D01*
X132162036Y-86049204D01*
X132162036Y-86049203D01*
X132167814Y-86044269D01*
X132260255Y-85915624D01*
X132319342Y-85768641D01*
X132341662Y-85611807D01*
X132341807Y-85598000D01*
X132322776Y-85440733D01*
X132266780Y-85292546D01*
X132181513Y-85168481D01*
X132159413Y-85101013D01*
X132177298Y-85032306D01*
X132183031Y-85023589D01*
X132215792Y-84977997D01*
X132260255Y-84916121D01*
X132319342Y-84769138D01*
X132341662Y-84612304D01*
X132341807Y-84598497D01*
X132322776Y-84441230D01*
X132266780Y-84293043D01*
X132215890Y-84218997D01*
X132181355Y-84168748D01*
X132181354Y-84168746D01*
X132177053Y-84162489D01*
X132058775Y-84057108D01*
X132051389Y-84053197D01*
X131925488Y-83986536D01*
X131925489Y-83986536D01*
X131918774Y-83982981D01*
X131765133Y-83944389D01*
X131757534Y-83944349D01*
X131757533Y-83944349D01*
X131691681Y-83944004D01*
X131606721Y-83943559D01*
X131599341Y-83945331D01*
X131599339Y-83945331D01*
X131460063Y-83978768D01*
X131460060Y-83978769D01*
X131452684Y-83980540D01*
X131311914Y-84053197D01*
X131192539Y-84157335D01*
X131188172Y-84163548D01*
X131188167Y-84163554D01*
X131186836Y-84165448D01*
X131185513Y-84166502D01*
X131183089Y-84169194D01*
X131182640Y-84168790D01*
X131131302Y-84209680D01*
X131083750Y-84218997D01*
X130283182Y-84218997D01*
X130215061Y-84198995D01*
X130188614Y-84173357D01*
X130187378Y-84174446D01*
X130182355Y-84168748D01*
X130178053Y-84162489D01*
X130059775Y-84057108D01*
X130052389Y-84053197D01*
X129926488Y-83986536D01*
X129926489Y-83986536D01*
X129919774Y-83982981D01*
X129766133Y-83944389D01*
X129758534Y-83944349D01*
X129758533Y-83944349D01*
X129692681Y-83944004D01*
X129607721Y-83943559D01*
X129600341Y-83945331D01*
X129600339Y-83945331D01*
X129461063Y-83978768D01*
X129461060Y-83978769D01*
X129453684Y-83980540D01*
X129312914Y-84053197D01*
X129193539Y-84157335D01*
X129102450Y-84286941D01*
X129044906Y-84434534D01*
X129043914Y-84442067D01*
X129043914Y-84442068D01*
X129025994Y-84578188D01*
X129024229Y-84591593D01*
X129041613Y-84749050D01*
X129096053Y-84897816D01*
X129100289Y-84904119D01*
X129100289Y-84904120D01*
X129184383Y-85029265D01*
X129205775Y-85096962D01*
X129187171Y-85165478D01*
X129182888Y-85171992D01*
X129106819Y-85280227D01*
X129102450Y-85286444D01*
X129091058Y-85315664D01*
X129053911Y-85410941D01*
X129044906Y-85434037D01*
X129043914Y-85441570D01*
X129043914Y-85441571D01*
X129031716Y-85534228D01*
X129024229Y-85591096D01*
X126331114Y-85591096D01*
X126314280Y-85546546D01*
X126224553Y-85415992D01*
X126106275Y-85310611D01*
X126098889Y-85306700D01*
X125972988Y-85240039D01*
X125972989Y-85240039D01*
X125966274Y-85236484D01*
X125812633Y-85197892D01*
X125805034Y-85197852D01*
X125805033Y-85197852D01*
X125739181Y-85197507D01*
X125654221Y-85197062D01*
X125646841Y-85198834D01*
X125646839Y-85198834D01*
X125507563Y-85232271D01*
X125507560Y-85232272D01*
X125500184Y-85234043D01*
X125359414Y-85306700D01*
X125240039Y-85410838D01*
X125148950Y-85540444D01*
X125091406Y-85688037D01*
X125090414Y-85695570D01*
X125090414Y-85695571D01*
X125079866Y-85775695D01*
X125070729Y-85845096D01*
X117716205Y-85845096D01*
X117678870Y-85617107D01*
X117578875Y-85256537D01*
X117575627Y-85248373D01*
X117441783Y-84912039D01*
X117441779Y-84912031D01*
X117440523Y-84908874D01*
X117265434Y-84578188D01*
X117263534Y-84575382D01*
X117263530Y-84575375D01*
X117057561Y-84271162D01*
X117055654Y-84268345D01*
X116813639Y-83982970D01*
X116542219Y-83725402D01*
X116539512Y-83723340D01*
X116539504Y-83723333D01*
X116247281Y-83500720D01*
X116244569Y-83498654D01*
X116045847Y-83378776D01*
X115927100Y-83307143D01*
X115927096Y-83307141D01*
X115924172Y-83305377D01*
X115921082Y-83303943D01*
X115921077Y-83303940D01*
X115587871Y-83149272D01*
X115587869Y-83149271D01*
X115584775Y-83147835D01*
X115581540Y-83146740D01*
X115581535Y-83146738D01*
X115233583Y-83028963D01*
X115230348Y-83027868D01*
X114865038Y-82946881D01*
X114716691Y-82930503D01*
X114496500Y-82906193D01*
X114496495Y-82906193D01*
X114493119Y-82905820D01*
X114489720Y-82905814D01*
X114489719Y-82905814D01*
X114312987Y-82905506D01*
X114118940Y-82905167D01*
X113980079Y-82920007D01*
X113750263Y-82944567D01*
X113750257Y-82944568D01*
X113746879Y-82944929D01*
X113381289Y-83024641D01*
X113026446Y-83143369D01*
X112686501Y-83299727D01*
X112683567Y-83301483D01*
X112683565Y-83301484D01*
X112633044Y-83331720D01*
X112365431Y-83491883D01*
X112066991Y-83717591D01*
X112064509Y-83719930D01*
X112064503Y-83719935D01*
X112058702Y-83725402D01*
X111794674Y-83974210D01*
X111792462Y-83976800D01*
X111792461Y-83976801D01*
X111585606Y-84218997D01*
X111551664Y-84258738D01*
X111549736Y-84261565D01*
X111549734Y-84261567D01*
X111426605Y-84442068D01*
X111340804Y-84567847D01*
X111339197Y-84570857D01*
X111339195Y-84570860D01*
X111229558Y-84776192D01*
X111164561Y-84897921D01*
X111163288Y-84901089D01*
X111163287Y-84901090D01*
X111027031Y-85240039D01*
X111024997Y-85245098D01*
X110969771Y-85441571D01*
X110925801Y-85598000D01*
X110923744Y-85605317D01*
X110923182Y-85608674D01*
X110923182Y-85608675D01*
X110880153Y-85865807D01*
X110861986Y-85974365D01*
X110840447Y-86347924D01*
X108458000Y-86347924D01*
X108458000Y-81066434D01*
X126023883Y-81066434D01*
X126030093Y-81122679D01*
X126040179Y-81214032D01*
X126041267Y-81223891D01*
X126043877Y-81231022D01*
X126043877Y-81231024D01*
X126077568Y-81323088D01*
X126095707Y-81372657D01*
X126099943Y-81378960D01*
X126099943Y-81378961D01*
X126133993Y-81429632D01*
X126184062Y-81504143D01*
X126189681Y-81509256D01*
X126189682Y-81509257D01*
X126270011Y-81582350D01*
X126306934Y-81642990D01*
X126310339Y-81660733D01*
X126313684Y-81688995D01*
X126317647Y-81697247D01*
X126319150Y-81706280D01*
X126324097Y-81715449D01*
X126324098Y-81715451D01*
X126343488Y-81751386D01*
X126346185Y-81756679D01*
X126364939Y-81795736D01*
X126364942Y-81795740D01*
X126368373Y-81802886D01*
X126371968Y-81807162D01*
X126373891Y-81809085D01*
X126375663Y-81811017D01*
X126375706Y-81811096D01*
X126375582Y-81811209D01*
X126376058Y-81811749D01*
X126379144Y-81817468D01*
X126386789Y-81824535D01*
X126418740Y-81854070D01*
X126422306Y-81857500D01*
X127199249Y-82634443D01*
X127233275Y-82696755D01*
X127235076Y-82739982D01*
X127229729Y-82780596D01*
X127238421Y-82859325D01*
X127243596Y-82906193D01*
X127247113Y-82938053D01*
X127249723Y-82945184D01*
X127249723Y-82945186D01*
X127279710Y-83027129D01*
X127301553Y-83086819D01*
X127389908Y-83218305D01*
X127395527Y-83223418D01*
X127395528Y-83223419D01*
X127406903Y-83233769D01*
X127507076Y-83324919D01*
X127646293Y-83400508D01*
X127799522Y-83440707D01*
X127883477Y-83442026D01*
X127950319Y-83443076D01*
X127950322Y-83443076D01*
X127957916Y-83443195D01*
X128112332Y-83407829D01*
X128182742Y-83372417D01*
X128247072Y-83340063D01*
X128247075Y-83340061D01*
X128253855Y-83336651D01*
X128259626Y-83331722D01*
X128259629Y-83331720D01*
X128368536Y-83238704D01*
X128368536Y-83238703D01*
X128374314Y-83233769D01*
X128466755Y-83105124D01*
X128525842Y-82958141D01*
X128548162Y-82801307D01*
X128548307Y-82787500D01*
X128546561Y-82773067D01*
X128530188Y-82637773D01*
X128529276Y-82630233D01*
X128473280Y-82482046D01*
X128383553Y-82351492D01*
X128265275Y-82246111D01*
X128125274Y-82171984D01*
X127971633Y-82133392D01*
X127964034Y-82133352D01*
X127964033Y-82133352D01*
X127902088Y-82133028D01*
X127822337Y-82132610D01*
X127754323Y-82112252D01*
X127733903Y-82095708D01*
X127239700Y-81601506D01*
X127205675Y-81539193D01*
X127210739Y-81468378D01*
X127226470Y-81438889D01*
X127260909Y-81390962D01*
X127319996Y-81243979D01*
X127322587Y-81225773D01*
X127351986Y-81161150D01*
X127411657Y-81122679D01*
X127483429Y-81122806D01*
X127514876Y-81132211D01*
X127520492Y-81134036D01*
X127561367Y-81148390D01*
X127568851Y-81151018D01*
X127574416Y-81151500D01*
X127577124Y-81151500D01*
X127579758Y-81151614D01*
X127579856Y-81151643D01*
X127579849Y-81151807D01*
X127580553Y-81151851D01*
X127586778Y-81153713D01*
X127640635Y-81151597D01*
X127645582Y-81151500D01*
X128413968Y-81151500D01*
X128482089Y-81171502D01*
X128509347Y-81195166D01*
X128512173Y-81198440D01*
X128516408Y-81204742D01*
X128633576Y-81311356D01*
X128772793Y-81386945D01*
X128926022Y-81427144D01*
X129009977Y-81428463D01*
X129076819Y-81429513D01*
X129076822Y-81429513D01*
X129084416Y-81429632D01*
X129238832Y-81394266D01*
X129309242Y-81358854D01*
X129373572Y-81326500D01*
X129373575Y-81326498D01*
X129380355Y-81323088D01*
X129386126Y-81318159D01*
X129386129Y-81318157D01*
X129495036Y-81225141D01*
X129495036Y-81225140D01*
X129500814Y-81220206D01*
X129593255Y-81091561D01*
X129652342Y-80944578D01*
X129674662Y-80787744D01*
X129674807Y-80773937D01*
X129655776Y-80616670D01*
X129599780Y-80468483D01*
X129563765Y-80416081D01*
X129514355Y-80344188D01*
X129514354Y-80344186D01*
X129510053Y-80337929D01*
X129498667Y-80327784D01*
X129397446Y-80237601D01*
X129391775Y-80232548D01*
X129384389Y-80228637D01*
X129258488Y-80161976D01*
X129258489Y-80161976D01*
X129251774Y-80158421D01*
X129098133Y-80119829D01*
X129090534Y-80119789D01*
X129090533Y-80119789D01*
X129024681Y-80119444D01*
X128939721Y-80118999D01*
X128932341Y-80120771D01*
X128932339Y-80120771D01*
X128793063Y-80154208D01*
X128793060Y-80154209D01*
X128785684Y-80155980D01*
X128644914Y-80228637D01*
X128639195Y-80233626D01*
X128536888Y-80322875D01*
X128525539Y-80332775D01*
X128521172Y-80338989D01*
X128516092Y-80344631D01*
X128515143Y-80343776D01*
X128465659Y-80383185D01*
X128418112Y-80392500D01*
X127844384Y-80392500D01*
X127776263Y-80372498D01*
X127755289Y-80355595D01*
X127703848Y-80304154D01*
X127669822Y-80241842D01*
X127668200Y-80197307D01*
X127675081Y-80148957D01*
X127675082Y-80148947D01*
X127675662Y-80144870D01*
X127675807Y-80131063D01*
X127656776Y-79973796D01*
X127600780Y-79825609D01*
X127511053Y-79695055D01*
X127392775Y-79589674D01*
X127385389Y-79585763D01*
X127259488Y-79519102D01*
X127259489Y-79519102D01*
X127252774Y-79515547D01*
X127099133Y-79476955D01*
X127091534Y-79476915D01*
X127091533Y-79476915D01*
X127025681Y-79476570D01*
X126940721Y-79476125D01*
X126933341Y-79477897D01*
X126933339Y-79477897D01*
X126794063Y-79511334D01*
X126794060Y-79511335D01*
X126786684Y-79513106D01*
X126645914Y-79585763D01*
X126526539Y-79689901D01*
X126435450Y-79819507D01*
X126377906Y-79967100D01*
X126357229Y-80124159D01*
X126360881Y-80157239D01*
X126373619Y-80272612D01*
X126374613Y-80281616D01*
X126377223Y-80288749D01*
X126377224Y-80288752D01*
X126402431Y-80357635D01*
X126407057Y-80428480D01*
X126372647Y-80490581D01*
X126341895Y-80512900D01*
X126319319Y-80524552D01*
X126319309Y-80524558D01*
X126312568Y-80528038D01*
X126193193Y-80632176D01*
X126102104Y-80761782D01*
X126044560Y-80909375D01*
X126043568Y-80916908D01*
X126043568Y-80916909D01*
X126028556Y-81030940D01*
X126023883Y-81066434D01*
X108458000Y-81066434D01*
X108458000Y-63487924D01*
X110840447Y-63487924D01*
X110840619Y-63491319D01*
X110840619Y-63491320D01*
X110857059Y-63815846D01*
X110859378Y-63861624D01*
X110859915Y-63864979D01*
X110859916Y-63864985D01*
X110889450Y-64049371D01*
X110918557Y-64231094D01*
X111017293Y-64592011D01*
X111154430Y-64940154D01*
X111328365Y-65271450D01*
X111330262Y-65274274D01*
X111330265Y-65274278D01*
X111526014Y-65565585D01*
X111537061Y-65582024D01*
X111539256Y-65584630D01*
X111539260Y-65584636D01*
X111558961Y-65608031D01*
X111778079Y-65868241D01*
X112048598Y-66126755D01*
X112345455Y-66354541D01*
X112665176Y-66548935D01*
X113004021Y-66707661D01*
X113007239Y-66708763D01*
X113007242Y-66708764D01*
X113354803Y-66827761D01*
X113354811Y-66827763D01*
X113358026Y-66828864D01*
X113723051Y-66911126D01*
X113810200Y-66921056D01*
X114091442Y-66953100D01*
X114091450Y-66953100D01*
X114094825Y-66953485D01*
X114098229Y-66953503D01*
X114098232Y-66953503D01*
X114301556Y-66954567D01*
X114468999Y-66955444D01*
X114472385Y-66955094D01*
X114472387Y-66955094D01*
X114837805Y-66917332D01*
X114837814Y-66917331D01*
X114841197Y-66916981D01*
X114844530Y-66916267D01*
X114844533Y-66916266D01*
X115024820Y-66877616D01*
X115207063Y-66838546D01*
X115562318Y-66721056D01*
X115902807Y-66565887D01*
X116000707Y-66507758D01*
X116221601Y-66376601D01*
X116221606Y-66376598D01*
X116224546Y-66374852D01*
X116254354Y-66352472D01*
X116326828Y-66298056D01*
X116523771Y-66150187D01*
X116796983Y-65894521D01*
X117040985Y-65610842D01*
X117062737Y-65579192D01*
X117250992Y-65305280D01*
X117250997Y-65305273D01*
X117252922Y-65302471D01*
X117254534Y-65299477D01*
X117254539Y-65299469D01*
X117428694Y-64976027D01*
X117430316Y-64973015D01*
X117542022Y-64697916D01*
X117569811Y-64629480D01*
X117569813Y-64629475D01*
X117571091Y-64626327D01*
X117576459Y-64607485D01*
X117645462Y-64365245D01*
X117673601Y-64266463D01*
X117697222Y-64128276D01*
X117736075Y-63900981D01*
X117736075Y-63900979D01*
X117736647Y-63897634D01*
X117738143Y-63873183D01*
X117757192Y-63561727D01*
X117759490Y-63524152D01*
X117759574Y-63500000D01*
X117758001Y-63470964D01*
X119541148Y-63470964D01*
X119554424Y-63673522D01*
X119555845Y-63679118D01*
X119555846Y-63679123D01*
X119594747Y-63832293D01*
X119604392Y-63870269D01*
X119606809Y-63875512D01*
X119644010Y-63956208D01*
X119689377Y-64054616D01*
X119806533Y-64220389D01*
X119951938Y-64362035D01*
X120120720Y-64474812D01*
X120126023Y-64477090D01*
X120126026Y-64477092D01*
X120214707Y-64515192D01*
X120307228Y-64554942D01*
X120363270Y-64567623D01*
X120499579Y-64598467D01*
X120499584Y-64598468D01*
X120505216Y-64599742D01*
X120510987Y-64599969D01*
X120510989Y-64599969D01*
X120570756Y-64602317D01*
X120708053Y-64607712D01*
X120816341Y-64592011D01*
X120903231Y-64579413D01*
X120903236Y-64579412D01*
X120908945Y-64578584D01*
X120914409Y-64576729D01*
X120914414Y-64576728D01*
X121095693Y-64515192D01*
X121095698Y-64515190D01*
X121101165Y-64513334D01*
X121278276Y-64414147D01*
X121289271Y-64405003D01*
X121429913Y-64288031D01*
X121434345Y-64284345D01*
X121564147Y-64128276D01*
X121659773Y-63957524D01*
X121660510Y-63956208D01*
X121660511Y-63956206D01*
X121663334Y-63951165D01*
X121665190Y-63945698D01*
X121665192Y-63945693D01*
X121726728Y-63764414D01*
X121726729Y-63764409D01*
X121728584Y-63758945D01*
X121729412Y-63753236D01*
X121729413Y-63753231D01*
X121757179Y-63561727D01*
X121757712Y-63558053D01*
X121759232Y-63500000D01*
X121756564Y-63470964D01*
X123351148Y-63470964D01*
X123364424Y-63673522D01*
X123365845Y-63679118D01*
X123365846Y-63679123D01*
X123404747Y-63832293D01*
X123414392Y-63870269D01*
X123416809Y-63875512D01*
X123454010Y-63956208D01*
X123499377Y-64054616D01*
X123616533Y-64220389D01*
X123761938Y-64362035D01*
X123930720Y-64474812D01*
X123936023Y-64477090D01*
X123936026Y-64477092D01*
X124024707Y-64515192D01*
X124117228Y-64554942D01*
X124173270Y-64567623D01*
X124309579Y-64598467D01*
X124309584Y-64598468D01*
X124315216Y-64599742D01*
X124320987Y-64599969D01*
X124320989Y-64599969D01*
X124380756Y-64602317D01*
X124518053Y-64607712D01*
X124626341Y-64592011D01*
X124713231Y-64579413D01*
X124713236Y-64579412D01*
X124718945Y-64578584D01*
X124724409Y-64576729D01*
X124724414Y-64576728D01*
X124905693Y-64515192D01*
X124905698Y-64515190D01*
X124911165Y-64513334D01*
X125088276Y-64414147D01*
X125099271Y-64405003D01*
X125239913Y-64288031D01*
X125244345Y-64284345D01*
X125268671Y-64255096D01*
X128626729Y-64255096D01*
X128630365Y-64288031D01*
X128638536Y-64362035D01*
X128644113Y-64412553D01*
X128646723Y-64419684D01*
X128646723Y-64419686D01*
X128679960Y-64510510D01*
X128698553Y-64561319D01*
X128702789Y-64567622D01*
X128702789Y-64567623D01*
X128742237Y-64626327D01*
X128786908Y-64692805D01*
X128792525Y-64697916D01*
X128792528Y-64697919D01*
X128803903Y-64708269D01*
X128904076Y-64799419D01*
X129043293Y-64875008D01*
X129196522Y-64915207D01*
X129280477Y-64916526D01*
X129347319Y-64917576D01*
X129347322Y-64917576D01*
X129354916Y-64917695D01*
X129509332Y-64882329D01*
X129579742Y-64846917D01*
X129644072Y-64814563D01*
X129644075Y-64814561D01*
X129650855Y-64811151D01*
X129656626Y-64806222D01*
X129656629Y-64806220D01*
X129765542Y-64713199D01*
X129765543Y-64713198D01*
X129771314Y-64708269D01*
X129781586Y-64693974D01*
X129837581Y-64650326D01*
X129883909Y-64641500D01*
X131734141Y-64641500D01*
X131802262Y-64661502D01*
X131829522Y-64685169D01*
X131830671Y-64686500D01*
X131834908Y-64692805D01*
X131952076Y-64799419D01*
X132091293Y-64875008D01*
X132244522Y-64915207D01*
X132328477Y-64916526D01*
X132395319Y-64917576D01*
X132395322Y-64917576D01*
X132402916Y-64917695D01*
X132557332Y-64882329D01*
X132627742Y-64846917D01*
X132692072Y-64814563D01*
X132692075Y-64814561D01*
X132698855Y-64811151D01*
X132704626Y-64806222D01*
X132704629Y-64806220D01*
X132813536Y-64713204D01*
X132813536Y-64713203D01*
X132819314Y-64708269D01*
X132911755Y-64579624D01*
X132970842Y-64432641D01*
X132981464Y-64358002D01*
X132992581Y-64279891D01*
X132992581Y-64279888D01*
X132993162Y-64275807D01*
X132993231Y-64269265D01*
X132993264Y-64266134D01*
X132993264Y-64266128D01*
X132993307Y-64262000D01*
X132974276Y-64104733D01*
X132918280Y-63956546D01*
X132862587Y-63875512D01*
X132832855Y-63832251D01*
X132832854Y-63832249D01*
X132828553Y-63825992D01*
X132710275Y-63720611D01*
X132702889Y-63716700D01*
X132576988Y-63650039D01*
X132576989Y-63650039D01*
X132570274Y-63646484D01*
X132416633Y-63607892D01*
X132409034Y-63607852D01*
X132409033Y-63607852D01*
X132343181Y-63607507D01*
X132258221Y-63607062D01*
X132250841Y-63608834D01*
X132250839Y-63608834D01*
X132111563Y-63642271D01*
X132111560Y-63642272D01*
X132104184Y-63644043D01*
X131963414Y-63716700D01*
X131844039Y-63820838D01*
X131839672Y-63827051D01*
X131839667Y-63827057D01*
X131838336Y-63828951D01*
X131837013Y-63830005D01*
X131834589Y-63832697D01*
X131834140Y-63832293D01*
X131782802Y-63873183D01*
X131735250Y-63882500D01*
X129885682Y-63882500D01*
X129817561Y-63862498D01*
X129791114Y-63836860D01*
X129789878Y-63837949D01*
X129784855Y-63832251D01*
X129780553Y-63825992D01*
X129662275Y-63720611D01*
X129654889Y-63716700D01*
X129528988Y-63650039D01*
X129528989Y-63650039D01*
X129522274Y-63646484D01*
X129368633Y-63607892D01*
X129361034Y-63607852D01*
X129361033Y-63607852D01*
X129295181Y-63607507D01*
X129210221Y-63607062D01*
X129202841Y-63608834D01*
X129202839Y-63608834D01*
X129063563Y-63642271D01*
X129063560Y-63642272D01*
X129056184Y-63644043D01*
X128915414Y-63716700D01*
X128796039Y-63820838D01*
X128704950Y-63950444D01*
X128647406Y-64098037D01*
X128646414Y-64105570D01*
X128646414Y-64105571D01*
X128629456Y-64234383D01*
X128626729Y-64255096D01*
X125268671Y-64255096D01*
X125374147Y-64128276D01*
X125469773Y-63957524D01*
X125470510Y-63956208D01*
X125470511Y-63956206D01*
X125473334Y-63951165D01*
X125475190Y-63945698D01*
X125475192Y-63945693D01*
X125536728Y-63764414D01*
X125536729Y-63764409D01*
X125538584Y-63758945D01*
X125539412Y-63753236D01*
X125539413Y-63753231D01*
X125567179Y-63561727D01*
X125567712Y-63558053D01*
X125569232Y-63500000D01*
X125568122Y-63487924D01*
X141320447Y-63487924D01*
X141320619Y-63491319D01*
X141320619Y-63491320D01*
X141337059Y-63815846D01*
X141339378Y-63861624D01*
X141339915Y-63864979D01*
X141339916Y-63864985D01*
X141369450Y-64049371D01*
X141398557Y-64231094D01*
X141497293Y-64592011D01*
X141634430Y-64940154D01*
X141808365Y-65271450D01*
X141810262Y-65274274D01*
X141810265Y-65274278D01*
X142006014Y-65565585D01*
X142017061Y-65582024D01*
X142019256Y-65584630D01*
X142019260Y-65584636D01*
X142038961Y-65608031D01*
X142258079Y-65868241D01*
X142528598Y-66126755D01*
X142825455Y-66354541D01*
X143145176Y-66548935D01*
X143484021Y-66707661D01*
X143487239Y-66708763D01*
X143487242Y-66708764D01*
X143834803Y-66827761D01*
X143834811Y-66827763D01*
X143838026Y-66828864D01*
X144203051Y-66911126D01*
X144290200Y-66921056D01*
X144571442Y-66953100D01*
X144571450Y-66953100D01*
X144574825Y-66953485D01*
X144578229Y-66953503D01*
X144578232Y-66953503D01*
X144781556Y-66954567D01*
X144948999Y-66955444D01*
X144952385Y-66955094D01*
X144952387Y-66955094D01*
X145317805Y-66917332D01*
X145317814Y-66917331D01*
X145321197Y-66916981D01*
X145324530Y-66916267D01*
X145324533Y-66916266D01*
X145504820Y-66877616D01*
X145687063Y-66838546D01*
X146042318Y-66721056D01*
X146382807Y-66565887D01*
X146480707Y-66507758D01*
X146701601Y-66376601D01*
X146701606Y-66376598D01*
X146704546Y-66374852D01*
X146734354Y-66352472D01*
X146806828Y-66298056D01*
X147003771Y-66150187D01*
X147276983Y-65894521D01*
X147520985Y-65610842D01*
X147542737Y-65579192D01*
X147730992Y-65305280D01*
X147730997Y-65305273D01*
X147732922Y-65302471D01*
X147734534Y-65299477D01*
X147734539Y-65299469D01*
X147908694Y-64976027D01*
X147910316Y-64973015D01*
X148022022Y-64697916D01*
X148049811Y-64629480D01*
X148049813Y-64629475D01*
X148051091Y-64626327D01*
X148056459Y-64607485D01*
X148125462Y-64365245D01*
X148153601Y-64266463D01*
X148177222Y-64128276D01*
X148216075Y-63900981D01*
X148216075Y-63900979D01*
X148216647Y-63897634D01*
X148218143Y-63873183D01*
X148237192Y-63561727D01*
X148239490Y-63524152D01*
X148239574Y-63500000D01*
X148219339Y-63126368D01*
X148158870Y-62757107D01*
X148058875Y-62396537D01*
X148055627Y-62388373D01*
X147921783Y-62052039D01*
X147921779Y-62052031D01*
X147920523Y-62048874D01*
X147745434Y-61718188D01*
X147743534Y-61715382D01*
X147743530Y-61715375D01*
X147537561Y-61411162D01*
X147535654Y-61408345D01*
X147293639Y-61122970D01*
X147022219Y-60865402D01*
X147019512Y-60863340D01*
X147019504Y-60863333D01*
X146727281Y-60640720D01*
X146724569Y-60638654D01*
X146404172Y-60445377D01*
X146401082Y-60443943D01*
X146401077Y-60443940D01*
X146067871Y-60289272D01*
X146067869Y-60289271D01*
X146064775Y-60287835D01*
X146061540Y-60286740D01*
X146061535Y-60286738D01*
X145713583Y-60168963D01*
X145710348Y-60167868D01*
X145345038Y-60086881D01*
X145212294Y-60072226D01*
X144976500Y-60046193D01*
X144976495Y-60046193D01*
X144973119Y-60045820D01*
X144969720Y-60045814D01*
X144969719Y-60045814D01*
X144792987Y-60045506D01*
X144598940Y-60045167D01*
X144460079Y-60060007D01*
X144230263Y-60084567D01*
X144230257Y-60084568D01*
X144226879Y-60084929D01*
X143861289Y-60164641D01*
X143506446Y-60283369D01*
X143166501Y-60439727D01*
X143163567Y-60441483D01*
X143163565Y-60441484D01*
X143154110Y-60447143D01*
X142845431Y-60631883D01*
X142546991Y-60857591D01*
X142544509Y-60859930D01*
X142544503Y-60859935D01*
X142293598Y-61096377D01*
X142274674Y-61114210D01*
X142031664Y-61398738D01*
X142029736Y-61401565D01*
X142029734Y-61401567D01*
X142025111Y-61408345D01*
X141820804Y-61707847D01*
X141819197Y-61710857D01*
X141819195Y-61710860D01*
X141646168Y-62034911D01*
X141644561Y-62037921D01*
X141643288Y-62041089D01*
X141643287Y-62041090D01*
X141634362Y-62063293D01*
X141504997Y-62385098D01*
X141470022Y-62509527D01*
X141439840Y-62616903D01*
X141403744Y-62745317D01*
X141403182Y-62748674D01*
X141403182Y-62748675D01*
X141344841Y-63097307D01*
X141341986Y-63114365D01*
X141320447Y-63487924D01*
X125568122Y-63487924D01*
X125550658Y-63297859D01*
X125549090Y-63292299D01*
X125497125Y-63108046D01*
X125497124Y-63108044D01*
X125495557Y-63102487D01*
X125484978Y-63081033D01*
X125408331Y-62925609D01*
X125405776Y-62920428D01*
X125284320Y-62757779D01*
X125135258Y-62619987D01*
X125130375Y-62616906D01*
X125130371Y-62616903D01*
X124968464Y-62514748D01*
X124963581Y-62511667D01*
X124775039Y-62436446D01*
X124769379Y-62435320D01*
X124769375Y-62435319D01*
X124581613Y-62397971D01*
X124581610Y-62397971D01*
X124575946Y-62396844D01*
X124570171Y-62396768D01*
X124570167Y-62396768D01*
X124468793Y-62395441D01*
X124372971Y-62394187D01*
X124367274Y-62395166D01*
X124367273Y-62395166D01*
X124178607Y-62427585D01*
X124172910Y-62428564D01*
X123982463Y-62498824D01*
X123808010Y-62602612D01*
X123803670Y-62606418D01*
X123803666Y-62606421D01*
X123734006Y-62667512D01*
X123655392Y-62736455D01*
X123651817Y-62740990D01*
X123651816Y-62740991D01*
X123641712Y-62753808D01*
X123529720Y-62895869D01*
X123527031Y-62900980D01*
X123527029Y-62900983D01*
X123514073Y-62925609D01*
X123435203Y-63075515D01*
X123375007Y-63269378D01*
X123351148Y-63470964D01*
X121756564Y-63470964D01*
X121740658Y-63297859D01*
X121739090Y-63292299D01*
X121687125Y-63108046D01*
X121687124Y-63108044D01*
X121685557Y-63102487D01*
X121674978Y-63081033D01*
X121598331Y-62925609D01*
X121595776Y-62920428D01*
X121474320Y-62757779D01*
X121325258Y-62619987D01*
X121320375Y-62616906D01*
X121320371Y-62616903D01*
X121158464Y-62514748D01*
X121153581Y-62511667D01*
X120965039Y-62436446D01*
X120959379Y-62435320D01*
X120959375Y-62435319D01*
X120771613Y-62397971D01*
X120771610Y-62397971D01*
X120765946Y-62396844D01*
X120760171Y-62396768D01*
X120760167Y-62396768D01*
X120658793Y-62395441D01*
X120562971Y-62394187D01*
X120557274Y-62395166D01*
X120557273Y-62395166D01*
X120368607Y-62427585D01*
X120362910Y-62428564D01*
X120172463Y-62498824D01*
X119998010Y-62602612D01*
X119993670Y-62606418D01*
X119993666Y-62606421D01*
X119924006Y-62667512D01*
X119845392Y-62736455D01*
X119841817Y-62740990D01*
X119841816Y-62740991D01*
X119831712Y-62753808D01*
X119719720Y-62895869D01*
X119717031Y-62900980D01*
X119717029Y-62900983D01*
X119704073Y-62925609D01*
X119625203Y-63075515D01*
X119565007Y-63269378D01*
X119541148Y-63470964D01*
X117758001Y-63470964D01*
X117739339Y-63126368D01*
X117678870Y-62757107D01*
X117578875Y-62396537D01*
X117575627Y-62388373D01*
X117441783Y-62052039D01*
X117441779Y-62052031D01*
X117440523Y-62048874D01*
X117265434Y-61718188D01*
X117263534Y-61715382D01*
X117263530Y-61715375D01*
X117057561Y-61411162D01*
X117055654Y-61408345D01*
X116813639Y-61122970D01*
X116542219Y-60865402D01*
X116539512Y-60863340D01*
X116539504Y-60863333D01*
X116247281Y-60640720D01*
X116244569Y-60638654D01*
X115924172Y-60445377D01*
X115921082Y-60443943D01*
X115921077Y-60443940D01*
X115587871Y-60289272D01*
X115587869Y-60289271D01*
X115584775Y-60287835D01*
X115581540Y-60286740D01*
X115581535Y-60286738D01*
X115233583Y-60168963D01*
X115230348Y-60167868D01*
X114865038Y-60086881D01*
X114847393Y-60084933D01*
X119545500Y-60084933D01*
X119545501Y-61835066D01*
X119560266Y-61909301D01*
X119616516Y-61993484D01*
X119626832Y-62000377D01*
X119687763Y-62041090D01*
X119700699Y-62049734D01*
X119774933Y-62064500D01*
X120649858Y-62064500D01*
X121525066Y-62064499D01*
X121560818Y-62057388D01*
X121587126Y-62052156D01*
X121587128Y-62052155D01*
X121599301Y-62049734D01*
X121609621Y-62042839D01*
X121609622Y-62042838D01*
X121673168Y-62000377D01*
X121683484Y-61993484D01*
X121739734Y-61909301D01*
X121754500Y-61835067D01*
X121754499Y-60084934D01*
X121754499Y-60084933D01*
X123355500Y-60084933D01*
X123355501Y-61835066D01*
X123370266Y-61909301D01*
X123426516Y-61993484D01*
X123436832Y-62000377D01*
X123497763Y-62041090D01*
X123510699Y-62049734D01*
X123584933Y-62064500D01*
X124459858Y-62064500D01*
X125335066Y-62064499D01*
X125370818Y-62057388D01*
X125397126Y-62052156D01*
X125397128Y-62052155D01*
X125409301Y-62049734D01*
X125419621Y-62042839D01*
X125419622Y-62042838D01*
X125483168Y-62000377D01*
X125493484Y-61993484D01*
X125549734Y-61909301D01*
X125564500Y-61835067D01*
X125564499Y-60191096D01*
X128552729Y-60191096D01*
X128570113Y-60348553D01*
X128572723Y-60355684D01*
X128572723Y-60355686D01*
X128604121Y-60441484D01*
X128624553Y-60497319D01*
X128712908Y-60628805D01*
X128718525Y-60633916D01*
X128718528Y-60633919D01*
X128824460Y-60730309D01*
X128830076Y-60735419D01*
X128969293Y-60811008D01*
X129122522Y-60851207D01*
X129206477Y-60852526D01*
X129273319Y-60853576D01*
X129273322Y-60853576D01*
X129280916Y-60853695D01*
X129435332Y-60818329D01*
X129505742Y-60782917D01*
X129570072Y-60750563D01*
X129570075Y-60750561D01*
X129576855Y-60747151D01*
X129582626Y-60742222D01*
X129582629Y-60742220D01*
X129691542Y-60649199D01*
X129691543Y-60649198D01*
X129697314Y-60644269D01*
X129707586Y-60629974D01*
X129763581Y-60586326D01*
X129809909Y-60577500D01*
X131808141Y-60577500D01*
X131876262Y-60597502D01*
X131903522Y-60621169D01*
X131904671Y-60622500D01*
X131908908Y-60628805D01*
X131925903Y-60644269D01*
X132017756Y-60727848D01*
X132026076Y-60735419D01*
X132165293Y-60811008D01*
X132318522Y-60851207D01*
X132402477Y-60852526D01*
X132469319Y-60853576D01*
X132469322Y-60853576D01*
X132476916Y-60853695D01*
X132631332Y-60818329D01*
X132701742Y-60782917D01*
X132766072Y-60750563D01*
X132766075Y-60750561D01*
X132772855Y-60747151D01*
X132778626Y-60742222D01*
X132778629Y-60742220D01*
X132887536Y-60649204D01*
X132887536Y-60649203D01*
X132893314Y-60644269D01*
X132985755Y-60515624D01*
X133044842Y-60368641D01*
X133050965Y-60325615D01*
X133066581Y-60215891D01*
X133066581Y-60215888D01*
X133067162Y-60211807D01*
X133067307Y-60198000D01*
X133048276Y-60040733D01*
X132992280Y-59892546D01*
X132941390Y-59818500D01*
X132906855Y-59768251D01*
X132906854Y-59768249D01*
X132902553Y-59761992D01*
X132784275Y-59656611D01*
X132776889Y-59652700D01*
X132650988Y-59586039D01*
X132650989Y-59586039D01*
X132644274Y-59582484D01*
X132490633Y-59543892D01*
X132483034Y-59543852D01*
X132483033Y-59543852D01*
X132417181Y-59543507D01*
X132332221Y-59543062D01*
X132324841Y-59544834D01*
X132324839Y-59544834D01*
X132185563Y-59578271D01*
X132185560Y-59578272D01*
X132178184Y-59580043D01*
X132037414Y-59652700D01*
X131918039Y-59756838D01*
X131913672Y-59763051D01*
X131913667Y-59763057D01*
X131912336Y-59764951D01*
X131911013Y-59766005D01*
X131908589Y-59768697D01*
X131908140Y-59768293D01*
X131856802Y-59809183D01*
X131809250Y-59818500D01*
X129811682Y-59818500D01*
X129743561Y-59798498D01*
X129717114Y-59772860D01*
X129715878Y-59773949D01*
X129710855Y-59768251D01*
X129706553Y-59761992D01*
X129588275Y-59656611D01*
X129580889Y-59652700D01*
X129454988Y-59586039D01*
X129454989Y-59586039D01*
X129448274Y-59582484D01*
X129294633Y-59543892D01*
X129287034Y-59543852D01*
X129287033Y-59543852D01*
X129221181Y-59543507D01*
X129136221Y-59543062D01*
X129128841Y-59544834D01*
X129128839Y-59544834D01*
X128989563Y-59578271D01*
X128989560Y-59578272D01*
X128982184Y-59580043D01*
X128841414Y-59652700D01*
X128722039Y-59756838D01*
X128630950Y-59886444D01*
X128573406Y-60034037D01*
X128572414Y-60041570D01*
X128572414Y-60041571D01*
X128555643Y-60168963D01*
X128552729Y-60191096D01*
X125564499Y-60191096D01*
X125564499Y-60084934D01*
X125549734Y-60010699D01*
X125493484Y-59926516D01*
X125409301Y-59870266D01*
X125335067Y-59855500D01*
X124460142Y-59855500D01*
X123584934Y-59855501D01*
X123549182Y-59862612D01*
X123522874Y-59867844D01*
X123522872Y-59867845D01*
X123510699Y-59870266D01*
X123500379Y-59877161D01*
X123500378Y-59877162D01*
X123486487Y-59886444D01*
X123426516Y-59926516D01*
X123370266Y-60010699D01*
X123355500Y-60084933D01*
X121754499Y-60084933D01*
X121739734Y-60010699D01*
X121683484Y-59926516D01*
X121599301Y-59870266D01*
X121525067Y-59855500D01*
X120650142Y-59855500D01*
X119774934Y-59855501D01*
X119739182Y-59862612D01*
X119712874Y-59867844D01*
X119712872Y-59867845D01*
X119700699Y-59870266D01*
X119690379Y-59877161D01*
X119690378Y-59877162D01*
X119676487Y-59886444D01*
X119616516Y-59926516D01*
X119560266Y-60010699D01*
X119545500Y-60084933D01*
X114847393Y-60084933D01*
X114732294Y-60072226D01*
X114496500Y-60046193D01*
X114496495Y-60046193D01*
X114493119Y-60045820D01*
X114489720Y-60045814D01*
X114489719Y-60045814D01*
X114312987Y-60045506D01*
X114118940Y-60045167D01*
X113980079Y-60060007D01*
X113750263Y-60084567D01*
X113750257Y-60084568D01*
X113746879Y-60084929D01*
X113381289Y-60164641D01*
X113026446Y-60283369D01*
X112686501Y-60439727D01*
X112683567Y-60441483D01*
X112683565Y-60441484D01*
X112674110Y-60447143D01*
X112365431Y-60631883D01*
X112066991Y-60857591D01*
X112064509Y-60859930D01*
X112064503Y-60859935D01*
X111813598Y-61096377D01*
X111794674Y-61114210D01*
X111551664Y-61398738D01*
X111549736Y-61401565D01*
X111549734Y-61401567D01*
X111545111Y-61408345D01*
X111340804Y-61707847D01*
X111339197Y-61710857D01*
X111339195Y-61710860D01*
X111166168Y-62034911D01*
X111164561Y-62037921D01*
X111163288Y-62041089D01*
X111163287Y-62041090D01*
X111154362Y-62063293D01*
X111024997Y-62385098D01*
X110990022Y-62509527D01*
X110959840Y-62616903D01*
X110923744Y-62745317D01*
X110923182Y-62748674D01*
X110923182Y-62748675D01*
X110864841Y-63097307D01*
X110861986Y-63114365D01*
X110840447Y-63487924D01*
X108458000Y-63487924D01*
X108458000Y-58800500D01*
X108478002Y-58732379D01*
X108531658Y-58685886D01*
X108584000Y-58674500D01*
X144742524Y-58674500D01*
X144767103Y-58676921D01*
G37*
%TD.AperFunction*%
%TD*%
%TA.AperFunction,Conductor*%
%TO.N,Net-(C20-Pad2)*%
G36*
X149293621Y-69743002D02*
G01*
X149340114Y-69796658D01*
X149351500Y-69849000D01*
X149351500Y-79884000D01*
X149331498Y-79952121D01*
X149277842Y-79998614D01*
X149225500Y-80010000D01*
X143394666Y-80010000D01*
X143326545Y-79989998D01*
X143280052Y-79936342D01*
X143269948Y-79866068D01*
X143285547Y-79821000D01*
X143325223Y-79752279D01*
X143325224Y-79752278D01*
X143328527Y-79746556D01*
X143387542Y-79564928D01*
X143407504Y-79375000D01*
X143387542Y-79185072D01*
X143328527Y-79003444D01*
X143233040Y-78838056D01*
X143105253Y-78696134D01*
X142950752Y-78583882D01*
X142944722Y-78581197D01*
X142938999Y-78577893D01*
X142940389Y-78575486D01*
X142895637Y-78537427D01*
X142875000Y-78468329D01*
X142875000Y-77773198D01*
X143882892Y-77773198D01*
X143883249Y-77780015D01*
X143883249Y-77780019D01*
X143888151Y-77873539D01*
X143892370Y-77954047D01*
X143894181Y-77960620D01*
X143894181Y-77960623D01*
X143917551Y-78045466D01*
X143940461Y-78128641D01*
X144024922Y-78288836D01*
X144029327Y-78294049D01*
X144029330Y-78294053D01*
X144137406Y-78421943D01*
X144137410Y-78421947D01*
X144141813Y-78427157D01*
X144147237Y-78431304D01*
X144147238Y-78431305D01*
X144280257Y-78533006D01*
X144280261Y-78533009D01*
X144285678Y-78537150D01*
X144367890Y-78575486D01*
X144443631Y-78610805D01*
X144443634Y-78610806D01*
X144449808Y-78613685D01*
X144456456Y-78615171D01*
X144456459Y-78615172D01*
X144562421Y-78638857D01*
X144626543Y-78653190D01*
X144632088Y-78653500D01*
X144765244Y-78653500D01*
X144900037Y-78638857D01*
X145063391Y-78583882D01*
X145065204Y-78583272D01*
X145065206Y-78583271D01*
X145071675Y-78581094D01*
X145226905Y-78487823D01*
X145231862Y-78483135D01*
X145231865Y-78483133D01*
X145353527Y-78368082D01*
X145353529Y-78368080D01*
X145358485Y-78363393D01*
X145362317Y-78357755D01*
X145362320Y-78357751D01*
X145456442Y-78219255D01*
X145460277Y-78213612D01*
X145527530Y-78045466D01*
X145528644Y-78038738D01*
X145528645Y-78038734D01*
X145555993Y-77873539D01*
X145555993Y-77873536D01*
X145557108Y-77866802D01*
X145552203Y-77773198D01*
X145547987Y-77692766D01*
X145547630Y-77685953D01*
X145524304Y-77601266D01*
X145501352Y-77517941D01*
X145499539Y-77511359D01*
X145415078Y-77351164D01*
X145410673Y-77345951D01*
X145410670Y-77345947D01*
X145302594Y-77218057D01*
X145302590Y-77218053D01*
X145298187Y-77212843D01*
X145292762Y-77208695D01*
X145159743Y-77106994D01*
X145159739Y-77106991D01*
X145154322Y-77102850D01*
X145049186Y-77053825D01*
X144996369Y-77029195D01*
X144996366Y-77029194D01*
X144990192Y-77026315D01*
X144983544Y-77024829D01*
X144983541Y-77024828D01*
X144818494Y-76987936D01*
X144818495Y-76987936D01*
X144813457Y-76986810D01*
X144807912Y-76986500D01*
X144674756Y-76986500D01*
X144539963Y-77001143D01*
X144456609Y-77029195D01*
X144374796Y-77056728D01*
X144374794Y-77056729D01*
X144368325Y-77058906D01*
X144213095Y-77152177D01*
X144208138Y-77156865D01*
X144208135Y-77156867D01*
X144153329Y-77208695D01*
X144081515Y-77276607D01*
X144077683Y-77282245D01*
X144077680Y-77282249D01*
X144026740Y-77357205D01*
X143979723Y-77426388D01*
X143912470Y-77594534D01*
X143911356Y-77601262D01*
X143911355Y-77601266D01*
X143884007Y-77766461D01*
X143882892Y-77773198D01*
X142875000Y-77773198D01*
X142875000Y-72545781D01*
X142895002Y-72477660D01*
X142916278Y-72454536D01*
X142915596Y-72453854D01*
X142921437Y-72448013D01*
X142927987Y-72442987D01*
X142952474Y-72411075D01*
X142952480Y-72411069D01*
X143020496Y-72322429D01*
X143020497Y-72322427D01*
X143025524Y-72315876D01*
X143086838Y-72167851D01*
X143097508Y-72086802D01*
X143102500Y-72048885D01*
X143102500Y-72048880D01*
X143107750Y-72009000D01*
X143105670Y-71993198D01*
X143882892Y-71993198D01*
X143883249Y-72000015D01*
X143883249Y-72000019D01*
X143888151Y-72093539D01*
X143892370Y-72174047D01*
X143894181Y-72180620D01*
X143894181Y-72180623D01*
X143917551Y-72265466D01*
X143940461Y-72348641D01*
X144024922Y-72508836D01*
X144029327Y-72514049D01*
X144029330Y-72514053D01*
X144137406Y-72641943D01*
X144137410Y-72641947D01*
X144141813Y-72647157D01*
X144147237Y-72651304D01*
X144147238Y-72651305D01*
X144280257Y-72753006D01*
X144280261Y-72753009D01*
X144285678Y-72757150D01*
X144372372Y-72797576D01*
X144443631Y-72830805D01*
X144443634Y-72830806D01*
X144449808Y-72833685D01*
X144456456Y-72835171D01*
X144456459Y-72835172D01*
X144562421Y-72858857D01*
X144626543Y-72873190D01*
X144632088Y-72873500D01*
X144765244Y-72873500D01*
X144900037Y-72858857D01*
X145018190Y-72819094D01*
X145065204Y-72803272D01*
X145065206Y-72803271D01*
X145071675Y-72801094D01*
X145226905Y-72707823D01*
X145231862Y-72703135D01*
X145231865Y-72703133D01*
X145353527Y-72588082D01*
X145353529Y-72588080D01*
X145358485Y-72583393D01*
X145362317Y-72577755D01*
X145362320Y-72577751D01*
X145456442Y-72439255D01*
X145460277Y-72433612D01*
X145527530Y-72265466D01*
X145528644Y-72258738D01*
X145528645Y-72258734D01*
X145555993Y-72093539D01*
X145555993Y-72093536D01*
X145557108Y-72086802D01*
X145552602Y-72000812D01*
X145547987Y-71912766D01*
X145547630Y-71905953D01*
X145524304Y-71821266D01*
X145501352Y-71737941D01*
X145499539Y-71731359D01*
X145415078Y-71571164D01*
X145410673Y-71565951D01*
X145410670Y-71565947D01*
X145302594Y-71438057D01*
X145302590Y-71438053D01*
X145298187Y-71432843D01*
X145292762Y-71428695D01*
X145159743Y-71326994D01*
X145159739Y-71326991D01*
X145154322Y-71322850D01*
X145049186Y-71273825D01*
X144996369Y-71249195D01*
X144996366Y-71249194D01*
X144990192Y-71246315D01*
X144983544Y-71244829D01*
X144983541Y-71244828D01*
X144818494Y-71207936D01*
X144818495Y-71207936D01*
X144813457Y-71206810D01*
X144807912Y-71206500D01*
X144674756Y-71206500D01*
X144539963Y-71221143D01*
X144456609Y-71249195D01*
X144374796Y-71276728D01*
X144374794Y-71276729D01*
X144368325Y-71278906D01*
X144213095Y-71372177D01*
X144208138Y-71376865D01*
X144208135Y-71376867D01*
X144153329Y-71428695D01*
X144081515Y-71496607D01*
X144077683Y-71502245D01*
X144077680Y-71502249D01*
X144026740Y-71577205D01*
X143979723Y-71646388D01*
X143912470Y-71814534D01*
X143911356Y-71821262D01*
X143911355Y-71821266D01*
X143888245Y-71960864D01*
X143882892Y-71993198D01*
X143105670Y-71993198D01*
X143103578Y-71977307D01*
X143102500Y-71960864D01*
X143102500Y-70025136D01*
X143103578Y-70008690D01*
X143106672Y-69985188D01*
X143107750Y-69977000D01*
X143102500Y-69937122D01*
X143102500Y-69937115D01*
X143093065Y-69865446D01*
X143104005Y-69795297D01*
X143151133Y-69742199D01*
X143217987Y-69723000D01*
X149225500Y-69723000D01*
X149293621Y-69743002D01*
G37*
%TD.AperFunction*%
%TD*%
M02*
