%TF.GenerationSoftware,KiCad,Pcbnew,(6.0.9)*%
%TF.CreationDate,2023-01-31T22:53:35+08:00*%
%TF.ProjectId,ESP32C3_RF_Test,45535033-3243-4335-9f52-465f54657374,rev?*%
%TF.SameCoordinates,Original*%
%TF.FileFunction,Legend,Top*%
%TF.FilePolarity,Positive*%
%FSLAX46Y46*%
G04 Gerber Fmt 4.6, Leading zero omitted, Abs format (unit mm)*
G04 Created by KiCad (PCBNEW (6.0.9)) date 2023-01-31 22:53:35*
%MOMM*%
%LPD*%
G01*
G04 APERTURE LIST*
%ADD10C,0.120000*%
G04 APERTURE END LIST*
D10*
%TO.C,U2*%
X131699000Y-75922000D02*
X129899000Y-75922000D01*
X131699000Y-75922000D02*
X132499000Y-75922000D01*
X131699000Y-79042000D02*
X132499000Y-79042000D01*
X131699000Y-79042000D02*
X130899000Y-79042000D01*
%TO.C,R5*%
X110206770Y-77903303D02*
X110542303Y-77567770D01*
X110945697Y-78642230D02*
X111281230Y-78306697D01*
%TO.C,L3*%
X134528779Y-74469000D02*
X134203221Y-74469000D01*
X134528779Y-75489000D02*
X134203221Y-75489000D01*
%TO.C,J3*%
X151220000Y-79630000D02*
X151220000Y-70230000D01*
X145420000Y-79630000D02*
X147420000Y-79630000D01*
X149320000Y-70230000D02*
X151220000Y-70230000D01*
X145420000Y-70230000D02*
X147420000Y-70230000D01*
X149320000Y-79630000D02*
X151220000Y-79630000D01*
%TO.C,L2*%
X115534221Y-77214000D02*
X115859779Y-77214000D01*
X115534221Y-78234000D02*
X115859779Y-78234000D01*
%TO.C,R2*%
X142637742Y-80503500D02*
X143112258Y-80503500D01*
X142637742Y-81548500D02*
X143112258Y-81548500D01*
%TO.C,F1*%
X138208936Y-78830000D02*
X139413064Y-78830000D01*
X138208936Y-76110000D02*
X139413064Y-76110000D01*
%TO.C,R8*%
X118334770Y-72061303D02*
X118670303Y-71725770D01*
X119073697Y-72800230D02*
X119409230Y-72464697D01*
%TO.C,SW1*%
X127600000Y-90430000D02*
X127600000Y-90840000D01*
X127600000Y-90840000D02*
X134020000Y-90840000D01*
X134020000Y-88830000D02*
X134020000Y-86430000D01*
X127600000Y-86430000D02*
X127600000Y-88830000D01*
X127600000Y-84420000D02*
X127600000Y-84700000D01*
X134020000Y-84420000D02*
X127600000Y-84420000D01*
X134020000Y-84830000D02*
X134020000Y-84420000D01*
X134020000Y-90840000D02*
X134020000Y-90430000D01*
%TO.C,R7*%
X124919090Y-72983983D02*
X125254623Y-72648450D01*
X125658017Y-73722910D02*
X125993550Y-73387377D01*
%TO.C,R3*%
X141367742Y-82027500D02*
X141842258Y-82027500D01*
X141367742Y-83072500D02*
X141842258Y-83072500D01*
%TO.C,C19*%
X131839580Y-68959000D02*
X131558420Y-68959000D01*
X131839580Y-69979000D02*
X131558420Y-69979000D01*
%TO.C,C13*%
X134618000Y-72833580D02*
X134618000Y-72552420D01*
X135638000Y-72833580D02*
X135638000Y-72552420D01*
%TO.C,R1*%
X110206770Y-77163697D02*
X110542303Y-77499230D01*
X110945697Y-76424770D02*
X111281230Y-76760303D01*
%TO.C,C7*%
X120637539Y-79837650D02*
X120836350Y-80036461D01*
X119916290Y-80558899D02*
X120115101Y-80757710D01*
%TO.C,C16*%
X131331580Y-80532000D02*
X131050420Y-80532000D01*
X131331580Y-79512000D02*
X131050420Y-79512000D01*
%TO.C,C10*%
X117173030Y-72524219D02*
X116974219Y-72723030D01*
X116451781Y-71802970D02*
X116252970Y-72001781D01*
%TO.C,Y1*%
X113878060Y-69208487D02*
X116211513Y-71541940D01*
X116211513Y-71541940D02*
X119039940Y-68713513D01*
%TO.C,C8*%
X112901000Y-77102580D02*
X112901000Y-76821420D01*
X113921000Y-77102580D02*
X113921000Y-76821420D01*
%TO.C,D1*%
X138584000Y-86067000D02*
X140054000Y-86067000D01*
X138584000Y-83782000D02*
X138584000Y-86067000D01*
X140054000Y-86067000D02*
X140054000Y-83782000D01*
%TO.C,R11*%
X131461742Y-68340500D02*
X131936258Y-68340500D01*
X131461742Y-67295500D02*
X131936258Y-67295500D01*
%TO.C,C15*%
X130789000Y-74166252D02*
X130789000Y-72743748D01*
X132609000Y-74166252D02*
X132609000Y-72743748D01*
%TO.C,C9*%
X117473000Y-78345420D02*
X117473000Y-78626580D01*
X118493000Y-78345420D02*
X118493000Y-78626580D01*
%TO.C,L1*%
X118743000Y-82077779D02*
X118743000Y-81752221D01*
X119763000Y-82077779D02*
X119763000Y-81752221D01*
%TO.C,U1*%
X126720417Y-77503680D02*
X126384542Y-77167804D01*
X123029320Y-81194777D02*
X122693444Y-80858902D01*
X123029320Y-73812583D02*
X123365196Y-74148458D01*
X126384542Y-77839556D02*
X126720417Y-77503680D01*
X123365196Y-80858902D02*
X123029320Y-81194777D01*
X122693444Y-74148458D02*
X123029320Y-73812583D01*
X119674098Y-77167804D02*
X119338223Y-77503680D01*
%TO.C,C17*%
X134506580Y-79500000D02*
X134225420Y-79500000D01*
X134506580Y-80520000D02*
X134225420Y-80520000D01*
%TO.C,AE2*%
X107348401Y-79831268D02*
X102603715Y-84575955D01*
X102603715Y-84575955D02*
X104527045Y-86499285D01*
X104527045Y-86499285D02*
X109271732Y-81754599D01*
%TO.C,R10*%
X139841500Y-87646742D02*
X139841500Y-88121258D01*
X138796500Y-87646742D02*
X138796500Y-88121258D01*
%TO.C,J4*%
X121920000Y-86300000D02*
X124520000Y-86300000D01*
X121920000Y-88960000D02*
X121920000Y-86300000D01*
X124520000Y-88960000D02*
X124520000Y-86300000D01*
X119320000Y-87630000D02*
X119320000Y-86300000D01*
X121920000Y-88960000D02*
X124520000Y-88960000D01*
X119320000Y-86300000D02*
X120650000Y-86300000D01*
%TO.C,R6*%
X123851453Y-71892620D02*
X124186986Y-71557087D01*
X124590380Y-72631547D02*
X124925913Y-72296014D01*
%TO.C,SW2*%
X127600000Y-59020000D02*
X127600000Y-59430000D01*
X134020000Y-63430000D02*
X134020000Y-61030000D01*
X134020000Y-59020000D02*
X127600000Y-59020000D01*
X127600000Y-65030000D02*
X127600000Y-65440000D01*
X134020000Y-59430000D02*
X134020000Y-59020000D01*
X127600000Y-65440000D02*
X134020000Y-65440000D01*
X134020000Y-65440000D02*
X134020000Y-65160000D01*
X127600000Y-61030000D02*
X127600000Y-63430000D01*
%TO.C,R14*%
X128286742Y-68594500D02*
X128761258Y-68594500D01*
X128286742Y-67549500D02*
X128761258Y-67549500D01*
%TO.C,C18*%
X136396000Y-86373580D02*
X136396000Y-86092420D01*
X137416000Y-86373580D02*
X137416000Y-86092420D01*
%TO.C,C1*%
X113178000Y-70180252D02*
X113178000Y-68757748D01*
X111358000Y-70180252D02*
X111358000Y-68757748D01*
%TO.C,R12*%
X138192742Y-65771500D02*
X138667258Y-65771500D01*
X138192742Y-66816500D02*
X138667258Y-66816500D01*
%TO.C,C11*%
X118411970Y-69842781D02*
X118610781Y-69643970D01*
X119133219Y-70564030D02*
X119332030Y-70365219D01*
%TO.C,C2*%
X126617000Y-75070580D02*
X126617000Y-74789420D01*
X127637000Y-75070580D02*
X127637000Y-74789420D01*
%TO.C,J2*%
X119320000Y-62230000D02*
X119320000Y-67370000D01*
X119320000Y-67370000D02*
X121980000Y-67370000D01*
X119320000Y-62230000D02*
X121980000Y-62230000D01*
X121980000Y-62230000D02*
X121980000Y-67370000D01*
X119320000Y-59630000D02*
X120650000Y-59630000D01*
X119320000Y-60960000D02*
X119320000Y-59630000D01*
%TO.C,R9*%
X124476742Y-84440500D02*
X124951258Y-84440500D01*
X124476742Y-85485500D02*
X124951258Y-85485500D01*
%TO.C,C14*%
X130304000Y-74357580D02*
X130304000Y-74076420D01*
X129284000Y-74357580D02*
X129284000Y-74076420D01*
%TO.C,C12*%
X136123000Y-74166252D02*
X136123000Y-72743748D01*
X137943000Y-74166252D02*
X137943000Y-72743748D01*
%TO.C,C4*%
X118951030Y-75049781D02*
X118752219Y-74850970D01*
X118229781Y-75771030D02*
X118030970Y-75572219D01*
%TO.C,C20*%
X138289420Y-68328000D02*
X138570580Y-68328000D01*
X138289420Y-67308000D02*
X138570580Y-67308000D01*
%TO.C,R13*%
X128286742Y-67070500D02*
X128761258Y-67070500D01*
X128286742Y-66025500D02*
X128761258Y-66025500D01*
%TO.C,C5*%
X121615252Y-85492000D02*
X120192748Y-85492000D01*
X121615252Y-83672000D02*
X120192748Y-83672000D01*
%TO.C,JP1*%
X136128000Y-76197000D02*
X136128000Y-78997000D01*
X136128000Y-78997000D02*
X134128000Y-78997000D01*
X134128000Y-78997000D02*
X134128000Y-76197000D01*
X134128000Y-76197000D02*
X136128000Y-76197000D01*
%TO.C,C3*%
X125047030Y-81922219D02*
X124848219Y-82121030D01*
X124325781Y-81200970D02*
X124126970Y-81399781D01*
%TO.C,C6*%
X121398420Y-83187000D02*
X121679580Y-83187000D01*
X121398420Y-82167000D02*
X121679580Y-82167000D01*
%TO.C,J1*%
X123130000Y-62230000D02*
X123130000Y-67370000D01*
X123130000Y-67370000D02*
X125790000Y-67370000D01*
X125790000Y-62230000D02*
X125790000Y-67370000D01*
X123130000Y-60960000D02*
X123130000Y-59630000D01*
X123130000Y-59630000D02*
X124460000Y-59630000D01*
X123130000Y-62230000D02*
X125790000Y-62230000D01*
%TO.C,R4*%
X122737017Y-71690910D02*
X123072550Y-71355377D01*
X121998090Y-70951983D02*
X122333623Y-70616450D01*
%TD*%
M02*
