%TF.GenerationSoftware,KiCad,Pcbnew,(6.0.9)*%
%TF.CreationDate,2023-01-31T22:53:35+08:00*%
%TF.ProjectId,ESP32C3_RF_Test,45535033-3243-4335-9f52-465f54657374,rev?*%
%TF.SameCoordinates,Original*%
%TF.FileFunction,Soldermask,Top*%
%TF.FilePolarity,Negative*%
%FSLAX46Y46*%
G04 Gerber Fmt 4.6, Leading zero omitted, Abs format (unit mm)*
G04 Created by KiCad (PCBNEW (6.0.9)) date 2023-01-31 22:53:35*
%MOMM*%
%LPD*%
G01*
G04 APERTURE LIST*
G04 Aperture macros list*
%AMRoundRect*
0 Rectangle with rounded corners*
0 $1 Rounding radius*
0 $2 $3 $4 $5 $6 $7 $8 $9 X,Y pos of 4 corners*
0 Add a 4 corners polygon primitive as box body*
4,1,4,$2,$3,$4,$5,$6,$7,$8,$9,$2,$3,0*
0 Add four circle primitives for the rounded corners*
1,1,$1+$1,$2,$3*
1,1,$1+$1,$4,$5*
1,1,$1+$1,$6,$7*
1,1,$1+$1,$8,$9*
0 Add four rect primitives between the rounded corners*
20,1,$1+$1,$2,$3,$4,$5,0*
20,1,$1+$1,$4,$5,$6,$7,0*
20,1,$1+$1,$6,$7,$8,$9,0*
20,1,$1+$1,$8,$9,$2,$3,0*%
%AMRotRect*
0 Rectangle, with rotation*
0 The origin of the aperture is its center*
0 $1 length*
0 $2 width*
0 $3 Rotation angle, in degrees counterclockwise*
0 Add horizontal line*
21,1,$1,$2,0,0,$3*%
%AMFreePoly0*
4,1,6,1.000000,0.000000,0.500000,-0.750000,-0.500000,-0.750000,-0.500000,0.750000,0.500000,0.750000,1.000000,0.000000,1.000000,0.000000,$1*%
%AMFreePoly1*
4,1,6,0.500000,-0.750000,-0.650000,-0.750000,-0.150000,0.000000,-0.650000,0.750000,0.500000,0.750000,0.500000,-0.750000,0.500000,-0.750000,$1*%
G04 Aperture macros list end*
%ADD10RoundRect,0.150000X-0.512500X-0.150000X0.512500X-0.150000X0.512500X0.150000X-0.512500X0.150000X0*%
%ADD11RoundRect,0.200000X0.053033X-0.335876X0.335876X-0.053033X-0.053033X0.335876X-0.335876X0.053033X0*%
%ADD12RoundRect,0.218750X0.218750X0.256250X-0.218750X0.256250X-0.218750X-0.256250X0.218750X-0.256250X0*%
%ADD13C,0.650000*%
%ADD14R,1.450000X0.600000*%
%ADD15R,1.450000X0.300000*%
%ADD16O,1.600000X1.000000*%
%ADD17O,2.100000X1.000000*%
%ADD18RoundRect,0.218750X-0.218750X-0.256250X0.218750X-0.256250X0.218750X0.256250X-0.218750X0.256250X0*%
%ADD19C,0.800000*%
%ADD20C,6.400000*%
%ADD21RoundRect,0.200000X-0.200000X-0.275000X0.200000X-0.275000X0.200000X0.275000X-0.200000X0.275000X0*%
%ADD22RoundRect,0.250000X-0.375000X-1.075000X0.375000X-1.075000X0.375000X1.075000X-0.375000X1.075000X0*%
%ADD23R,2.800000X1.000000*%
%ADD24RoundRect,0.225000X0.225000X0.250000X-0.225000X0.250000X-0.225000X-0.250000X0.225000X-0.250000X0*%
%ADD25RoundRect,0.225000X0.250000X-0.225000X0.250000X0.225000X-0.250000X0.225000X-0.250000X-0.225000X0*%
%ADD26RoundRect,0.200000X-0.335876X-0.053033X-0.053033X-0.335876X0.335876X0.053033X0.053033X0.335876X0*%
%ADD27RoundRect,0.225000X-0.335876X-0.017678X-0.017678X-0.335876X0.335876X0.017678X0.017678X0.335876X0*%
%ADD28RoundRect,0.225000X-0.017678X0.335876X-0.335876X0.017678X0.017678X-0.335876X0.335876X-0.017678X0*%
%ADD29RotRect,1.400000X1.200000X45.000000*%
%ADD30RoundRect,0.218750X0.256250X-0.218750X0.256250X0.218750X-0.256250X0.218750X-0.256250X-0.218750X0*%
%ADD31RoundRect,0.250000X0.650000X-0.325000X0.650000X0.325000X-0.650000X0.325000X-0.650000X-0.325000X0*%
%ADD32RoundRect,0.225000X-0.250000X0.225000X-0.250000X-0.225000X0.250000X-0.225000X0.250000X0.225000X0*%
%ADD33RoundRect,0.062500X-0.220971X-0.309359X0.309359X0.220971X0.220971X0.309359X-0.309359X-0.220971X0*%
%ADD34RoundRect,0.062500X0.220971X-0.309359X0.309359X-0.220971X-0.220971X0.309359X-0.309359X0.220971X0*%
%ADD35RotRect,3.100000X3.100000X45.000000*%
%ADD36RoundRect,0.250000X0.353553X-0.848528X0.848528X-0.353553X-0.353553X0.848528X-0.848528X0.353553X0*%
%ADD37RoundRect,0.200000X-0.275000X0.200000X-0.275000X-0.200000X0.275000X-0.200000X0.275000X0.200000X0*%
%ADD38R,1.700000X1.700000*%
%ADD39O,1.700000X1.700000*%
%ADD40RoundRect,0.225000X0.017678X-0.335876X0.335876X-0.017678X-0.017678X0.335876X-0.335876X0.017678X0*%
%ADD41RoundRect,0.225000X0.335876X0.017678X0.017678X0.335876X-0.335876X-0.017678X-0.017678X-0.335876X0*%
%ADD42RoundRect,0.225000X-0.225000X-0.250000X0.225000X-0.250000X0.225000X0.250000X-0.225000X0.250000X0*%
%ADD43RoundRect,0.250000X0.325000X0.650000X-0.325000X0.650000X-0.325000X-0.650000X0.325000X-0.650000X0*%
%ADD44FreePoly0,270.000000*%
%ADD45FreePoly1,270.000000*%
G04 APERTURE END LIST*
D10*
%TO.C,U2*%
X130561500Y-76532000D03*
X130561500Y-77482000D03*
X130561500Y-78432000D03*
X132836500Y-78432000D03*
X132836500Y-76532000D03*
%TD*%
D11*
%TO.C,R5*%
X110160637Y-78688363D03*
X111327363Y-77521637D03*
%TD*%
D12*
%TO.C,L3*%
X135153500Y-74979000D03*
X133578500Y-74979000D03*
%TD*%
D13*
%TO.C,J3*%
X144720000Y-77820000D03*
X144720000Y-72040000D03*
D14*
X143275000Y-78180000D03*
X143275000Y-77380000D03*
D15*
X143275000Y-76180000D03*
X143275000Y-75180000D03*
X143275000Y-74680000D03*
X143275000Y-73680000D03*
D14*
X143275000Y-72480000D03*
X143275000Y-71680000D03*
X143275000Y-71680000D03*
X143275000Y-72480000D03*
D15*
X143275000Y-73180000D03*
X143275000Y-74180000D03*
X143275000Y-75680000D03*
X143275000Y-76680000D03*
D14*
X143275000Y-77380000D03*
X143275000Y-78180000D03*
D16*
X148370000Y-79250000D03*
X148370000Y-70610000D03*
D17*
X144190000Y-79250000D03*
X144190000Y-70610000D03*
%TD*%
D18*
%TO.C,L2*%
X114909500Y-77724000D03*
X116484500Y-77724000D03*
%TD*%
D19*
%TO.C,H2*%
X142380000Y-63500000D03*
X143082944Y-65197056D03*
X144780000Y-61100000D03*
X143082944Y-61802944D03*
D20*
X144780000Y-63500000D03*
D19*
X146477056Y-61802944D03*
X144780000Y-65900000D03*
X146477056Y-65197056D03*
X147180000Y-63500000D03*
%TD*%
D21*
%TO.C,R2*%
X142050000Y-81026000D03*
X143700000Y-81026000D03*
%TD*%
D22*
%TO.C,F1*%
X137411000Y-77470000D03*
X140211000Y-77470000D03*
%TD*%
D11*
%TO.C,R8*%
X118288637Y-72846363D03*
X119455363Y-71679637D03*
%TD*%
D23*
%TO.C,SW1*%
X127910000Y-89630000D03*
X133710000Y-89630000D03*
X133710000Y-85630000D03*
X127910000Y-85630000D03*
%TD*%
D11*
%TO.C,R7*%
X124872957Y-73769043D03*
X126039683Y-72602317D03*
%TD*%
D21*
%TO.C,R3*%
X140780000Y-82550000D03*
X142430000Y-82550000D03*
%TD*%
D24*
%TO.C,C19*%
X132474000Y-69469000D03*
X130924000Y-69469000D03*
%TD*%
D19*
%TO.C,H4*%
X114300000Y-83960000D03*
X115997056Y-88057056D03*
X112602944Y-84662944D03*
X116700000Y-86360000D03*
X114300000Y-88760000D03*
X111900000Y-86360000D03*
D20*
X114300000Y-86360000D03*
D19*
X112602944Y-88057056D03*
X115997056Y-84662944D03*
%TD*%
D25*
%TO.C,C13*%
X135128000Y-73468000D03*
X135128000Y-71918000D03*
%TD*%
D26*
%TO.C,R1*%
X110160637Y-76378637D03*
X111327363Y-77545363D03*
%TD*%
D27*
%TO.C,C7*%
X119828312Y-79749672D03*
X120924328Y-80845688D03*
%TD*%
D19*
%TO.C,H3*%
X142380000Y-86360000D03*
D20*
X144780000Y-86360000D03*
D19*
X144780000Y-88760000D03*
X146477056Y-88057056D03*
X146477056Y-84662944D03*
X147180000Y-86360000D03*
X143082944Y-84662944D03*
X143082944Y-88057056D03*
X144780000Y-83960000D03*
%TD*%
D24*
%TO.C,C16*%
X131966000Y-80022000D03*
X130416000Y-80022000D03*
%TD*%
D28*
%TO.C,C10*%
X117261008Y-71714992D03*
X116164992Y-72811008D03*
%TD*%
D29*
%TO.C,Y1*%
X116282223Y-70339858D03*
X117837858Y-68784223D03*
X116635777Y-67582142D03*
X115080142Y-69137777D03*
%TD*%
D25*
%TO.C,C8*%
X113411000Y-77737000D03*
X113411000Y-76187000D03*
%TD*%
D30*
%TO.C,D1*%
X139319000Y-85369500D03*
X139319000Y-83794500D03*
%TD*%
D21*
%TO.C,R11*%
X130874000Y-67818000D03*
X132524000Y-67818000D03*
%TD*%
D31*
%TO.C,C15*%
X131699000Y-74930000D03*
X131699000Y-71980000D03*
%TD*%
D32*
%TO.C,C9*%
X117983000Y-77711000D03*
X117983000Y-79261000D03*
%TD*%
D30*
%TO.C,L1*%
X119253000Y-82702500D03*
X119253000Y-81127500D03*
%TD*%
D33*
%TO.C,U1*%
X120068310Y-77989816D03*
X120421864Y-78343369D03*
X120775417Y-78696923D03*
X121128971Y-79050476D03*
X121482524Y-79404029D03*
X121836077Y-79757583D03*
X122189631Y-80111136D03*
X122543184Y-80464690D03*
D34*
X123515456Y-80464690D03*
X123869009Y-80111136D03*
X124222563Y-79757583D03*
X124576116Y-79404029D03*
X124929669Y-79050476D03*
X125283223Y-78696923D03*
X125636776Y-78343369D03*
X125990330Y-77989816D03*
D33*
X125990330Y-77017544D03*
X125636776Y-76663991D03*
X125283223Y-76310437D03*
X124929669Y-75956884D03*
X124576116Y-75603331D03*
X124222563Y-75249777D03*
X123869009Y-74896224D03*
X123515456Y-74542670D03*
D34*
X122543184Y-74542670D03*
X122189631Y-74896224D03*
X121836077Y-75249777D03*
X121482524Y-75603331D03*
X121128971Y-75956884D03*
X120775417Y-76310437D03*
X120421864Y-76663991D03*
X120068310Y-77017544D03*
D35*
X123029320Y-77503680D03*
%TD*%
D24*
%TO.C,C17*%
X135141000Y-80010000D03*
X133591000Y-80010000D03*
%TD*%
D36*
%TO.C,AE2*%
X104173492Y-84929508D03*
X108204000Y-80899000D03*
%TD*%
D37*
%TO.C,R10*%
X139319000Y-87059000D03*
X139319000Y-88709000D03*
%TD*%
D38*
%TO.C,J4*%
X120650000Y-87630000D03*
D39*
X123190000Y-87630000D03*
%TD*%
D11*
%TO.C,R6*%
X123805320Y-72677680D03*
X124972046Y-71510954D03*
%TD*%
D23*
%TO.C,SW2*%
X127910000Y-60230000D03*
X133710000Y-60230000D03*
X133710000Y-64230000D03*
X127910000Y-64230000D03*
%TD*%
D21*
%TO.C,R14*%
X127699000Y-68072000D03*
X129349000Y-68072000D03*
%TD*%
D19*
%TO.C,H1*%
X116700000Y-63500000D03*
X115997056Y-61802944D03*
X115997056Y-65197056D03*
X112602944Y-61802944D03*
X114300000Y-61100000D03*
X112602944Y-65197056D03*
X114300000Y-65900000D03*
D20*
X114300000Y-63500000D03*
D19*
X111900000Y-63500000D03*
%TD*%
D25*
%TO.C,C18*%
X136906000Y-87008000D03*
X136906000Y-85458000D03*
%TD*%
D31*
%TO.C,C1*%
X112268000Y-70944000D03*
X112268000Y-67994000D03*
%TD*%
D21*
%TO.C,R12*%
X137605000Y-66294000D03*
X139255000Y-66294000D03*
%TD*%
D40*
%TO.C,C11*%
X118323992Y-70652008D03*
X119420008Y-69555992D03*
%TD*%
D25*
%TO.C,C2*%
X127127000Y-75705000D03*
X127127000Y-74155000D03*
%TD*%
D38*
%TO.C,J2*%
X120650000Y-60960000D03*
D39*
X120650000Y-63500000D03*
X120650000Y-66040000D03*
%TD*%
D21*
%TO.C,R9*%
X123889000Y-84963000D03*
X125539000Y-84963000D03*
%TD*%
D25*
%TO.C,C14*%
X129794000Y-74992000D03*
X129794000Y-73442000D03*
%TD*%
D31*
%TO.C,C12*%
X137033000Y-74930000D03*
X137033000Y-71980000D03*
%TD*%
D41*
%TO.C,C4*%
X119039008Y-75859008D03*
X117942992Y-74762992D03*
%TD*%
D42*
%TO.C,C20*%
X137655000Y-67818000D03*
X139205000Y-67818000D03*
%TD*%
D21*
%TO.C,R13*%
X127699000Y-66548000D03*
X129349000Y-66548000D03*
%TD*%
D43*
%TO.C,C5*%
X122379000Y-84582000D03*
X119429000Y-84582000D03*
%TD*%
D44*
%TO.C,JP1*%
X135128000Y-76872000D03*
D45*
X135128000Y-78322000D03*
%TD*%
D28*
%TO.C,C3*%
X125135008Y-81112992D03*
X124038992Y-82209008D03*
%TD*%
D42*
%TO.C,C6*%
X120764000Y-82677000D03*
X122314000Y-82677000D03*
%TD*%
D38*
%TO.C,J1*%
X124460000Y-60960000D03*
D39*
X124460000Y-63500000D03*
X124460000Y-66040000D03*
%TD*%
D11*
%TO.C,R4*%
X121951957Y-71737043D03*
X123118683Y-70570317D03*
%TD*%
M02*
