%TF.GenerationSoftware,KiCad,Pcbnew,(6.0.9)*%
%TF.CreationDate,2023-01-31T22:53:35+08:00*%
%TF.ProjectId,ESP32C3_RF_Test,45535033-3243-4335-9f52-465f54657374,rev?*%
%TF.SameCoordinates,Original*%
%TF.FileFunction,Soldermask,Bot*%
%TF.FilePolarity,Negative*%
%FSLAX46Y46*%
G04 Gerber Fmt 4.6, Leading zero omitted, Abs format (unit mm)*
G04 Created by KiCad (PCBNEW (6.0.9)) date 2023-01-31 22:53:35*
%MOMM*%
%LPD*%
G01*
G04 APERTURE LIST*
%ADD10C,0.650000*%
%ADD11O,1.600000X1.000000*%
%ADD12O,2.100000X1.000000*%
%ADD13C,0.800000*%
%ADD14C,6.400000*%
%ADD15R,1.700000X1.700000*%
%ADD16O,1.700000X1.700000*%
G04 APERTURE END LIST*
D10*
%TO.C,J3*%
X144720000Y-77820000D03*
X144720000Y-72040000D03*
D11*
X148370000Y-79250000D03*
X148370000Y-70610000D03*
D12*
X144190000Y-79250000D03*
X144190000Y-70610000D03*
%TD*%
D13*
%TO.C,H2*%
X142380000Y-63500000D03*
X143082944Y-65197056D03*
X144780000Y-61100000D03*
X143082944Y-61802944D03*
D14*
X144780000Y-63500000D03*
D13*
X146477056Y-61802944D03*
X144780000Y-65900000D03*
X146477056Y-65197056D03*
X147180000Y-63500000D03*
%TD*%
%TO.C,H4*%
X114300000Y-83960000D03*
X115997056Y-88057056D03*
X112602944Y-84662944D03*
X116700000Y-86360000D03*
X114300000Y-88760000D03*
X111900000Y-86360000D03*
D14*
X114300000Y-86360000D03*
D13*
X112602944Y-88057056D03*
X115997056Y-84662944D03*
%TD*%
%TO.C,H3*%
X142380000Y-86360000D03*
D14*
X144780000Y-86360000D03*
D13*
X144780000Y-88760000D03*
X146477056Y-88057056D03*
X146477056Y-84662944D03*
X147180000Y-86360000D03*
X143082944Y-84662944D03*
X143082944Y-88057056D03*
X144780000Y-83960000D03*
%TD*%
D15*
%TO.C,J4*%
X120650000Y-87630000D03*
D16*
X123190000Y-87630000D03*
%TD*%
D13*
%TO.C,H1*%
X116700000Y-63500000D03*
X115997056Y-61802944D03*
X115997056Y-65197056D03*
X112602944Y-61802944D03*
X114300000Y-61100000D03*
X112602944Y-65197056D03*
X114300000Y-65900000D03*
D14*
X114300000Y-63500000D03*
D13*
X111900000Y-63500000D03*
%TD*%
D15*
%TO.C,J2*%
X120650000Y-60960000D03*
D16*
X120650000Y-63500000D03*
X120650000Y-66040000D03*
%TD*%
D15*
%TO.C,J1*%
X124460000Y-60960000D03*
D16*
X124460000Y-63500000D03*
X124460000Y-66040000D03*
%TD*%
M02*
